G04 #@! TF.GenerationSoftware,KiCad,Pcbnew,5.1.5+dfsg1-2build2*
G04 #@! TF.CreationDate,2021-11-20T23:12:37+10:30*
G04 #@! TF.ProjectId,tda7293,74646137-3239-4332-9e6b-696361645f70,rev?*
G04 #@! TF.SameCoordinates,Original*
G04 #@! TF.FileFunction,Copper,L2,Bot*
G04 #@! TF.FilePolarity,Positive*
%FSLAX46Y46*%
G04 Gerber Fmt 4.6, Leading zero omitted, Abs format (unit mm)*
G04 Created by KiCad (PCBNEW 5.1.5+dfsg1-2build2) date 2021-11-20 23:12:37*
%MOMM*%
%LPD*%
G04 APERTURE LIST*
%ADD10R,1.600000X1.600000*%
%ADD11C,1.600000*%
%ADD12R,1.998980X1.998980*%
%ADD13O,1.998980X1.998980*%
%ADD14C,2.400000*%
%ADD15R,2.400000X2.400000*%
%ADD16C,2.500000*%
%ADD17R,2.500000X2.500000*%
%ADD18O,2.400000X2.400000*%
%ADD19O,1.500000X2.000000*%
%ADD20O,1.600000X1.600000*%
%ADD21C,1.000000*%
%ADD22C,0.800000*%
%ADD23C,1.000000*%
%ADD24C,2.000000*%
%ADD25C,3.000000*%
%ADD26C,0.250000*%
%ADD27C,4.000000*%
%ADD28C,0.750000*%
G04 APERTURE END LIST*
D10*
X102870000Y-42799000D03*
D11*
X106370000Y-42799000D03*
D10*
X93726000Y-39624000D03*
D11*
X97226000Y-39624000D03*
D10*
X40894000Y-42672000D03*
D11*
X44394000Y-42672000D03*
D10*
X31623000Y-39751000D03*
D11*
X35123000Y-39751000D03*
D12*
X111760000Y-68199000D03*
D13*
X114300000Y-68199000D03*
X50546000Y-67818000D03*
X48006000Y-67818000D03*
D12*
X45466000Y-67818000D03*
D13*
X53086000Y-67818000D03*
D11*
X42084000Y-68580000D03*
X37084000Y-68580000D03*
X61468000Y-68580000D03*
X56468000Y-68580000D03*
D14*
X31235000Y-54737000D03*
D15*
X38735000Y-54737000D03*
X99695000Y-54737000D03*
D14*
X92195000Y-54737000D03*
D15*
X57785000Y-54737000D03*
D14*
X50285000Y-54737000D03*
X111245000Y-54737000D03*
D15*
X118745000Y-54737000D03*
D16*
X82380000Y-31000000D03*
X77380000Y-31000000D03*
D17*
X67380000Y-31000000D03*
D16*
X72380000Y-31000000D03*
X80000000Y-65460000D03*
D17*
X70000000Y-65460000D03*
D16*
X75000000Y-65460000D03*
D14*
X61976000Y-27500000D03*
D18*
X61976000Y-32580000D03*
X87884000Y-32580000D03*
D14*
X87884000Y-27500000D03*
D19*
X52890000Y-33588000D03*
X51620000Y-28508000D03*
X50350000Y-33588000D03*
X49080000Y-28508000D03*
X47810000Y-33588000D03*
X46540000Y-28508000D03*
X45270000Y-33588000D03*
X44000000Y-28508000D03*
X42730000Y-33588000D03*
X41460000Y-28508000D03*
X40190000Y-33588000D03*
X38920000Y-28508000D03*
X37650000Y-33588000D03*
X36380000Y-28508000D03*
X35110000Y-33588000D03*
X114890000Y-33528000D03*
X113620000Y-28448000D03*
X112350000Y-33528000D03*
X111080000Y-28448000D03*
X109810000Y-33528000D03*
X108540000Y-28448000D03*
X107270000Y-33528000D03*
X106000000Y-28448000D03*
X104730000Y-33528000D03*
X103460000Y-28448000D03*
X102190000Y-33528000D03*
X100920000Y-28448000D03*
X99650000Y-33528000D03*
X98380000Y-28448000D03*
X97110000Y-33528000D03*
D20*
X91948000Y-69342000D03*
X99568000Y-66802000D03*
X91948000Y-66802000D03*
D10*
X99568000Y-69342000D03*
D21*
X58420000Y-36068000D03*
D22*
X77215996Y-51054000D03*
D21*
X118855996Y-36560000D03*
X56642000Y-36576000D03*
D22*
X74422000Y-53847994D03*
X64191940Y-56388000D03*
X64262000Y-66548000D03*
D21*
X108712000Y-37592000D03*
X45466002Y-36322000D03*
D22*
X91440000Y-36068000D03*
X65024000Y-57150000D03*
X65278016Y-69850000D03*
X81280000Y-42290998D03*
X81280000Y-39116000D03*
X84328000Y-60452000D03*
X85852000Y-60452000D03*
X72390000Y-50054000D03*
X85090000Y-59182000D03*
X86106000Y-50038000D03*
X85090000Y-56387996D03*
D21*
X94742000Y-26247990D03*
D23*
X38920000Y-29310270D02*
X38920000Y-28508000D01*
X35110000Y-33120270D02*
X38920000Y-29310270D01*
X35110000Y-33588000D02*
X35110000Y-33120270D01*
X97110000Y-33528000D02*
X97110000Y-33060270D01*
X97110000Y-33060270D02*
X100920000Y-29250270D01*
X100920000Y-29250270D02*
X100920000Y-28448000D01*
D24*
X97062000Y-36576000D02*
X97028000Y-36576000D01*
X97110000Y-36528000D02*
X97062000Y-36576000D01*
D23*
X97110000Y-33528000D02*
X97110000Y-36528000D01*
D24*
X92195000Y-54737000D02*
X92195000Y-54617000D01*
X118745000Y-54737000D02*
X118745000Y-54991000D01*
X57785000Y-54737000D02*
X57531000Y-54737000D01*
X75000000Y-65460000D02*
X75000000Y-65208000D01*
X94488000Y-36576000D02*
X93472000Y-36576000D01*
D25*
X114100001Y-37392001D02*
X114100001Y-49475999D01*
X113284000Y-36830000D02*
X107695998Y-36830000D01*
D26*
X91948000Y-66802000D02*
X91694000Y-66802000D01*
D25*
X114046000Y-59690000D02*
X97148000Y-59690000D01*
X97148000Y-59690000D02*
X92195000Y-54737000D01*
X118745000Y-54991000D02*
X114046000Y-59690000D01*
X36188000Y-59690000D02*
X31235000Y-54737000D01*
X52578000Y-59690000D02*
X36188000Y-59690000D01*
X57531000Y-54737000D02*
X52578000Y-59690000D01*
X36442000Y-49530000D02*
X52238000Y-49530000D01*
X31235000Y-54737000D02*
X36442000Y-49530000D01*
X57785000Y-54737000D02*
X51562000Y-48514000D01*
X97282000Y-49530000D02*
X112522000Y-49530000D01*
X92195000Y-54617000D02*
X97282000Y-49530000D01*
X113792000Y-49784000D02*
X118745000Y-54737000D01*
X113792000Y-49276000D02*
X113792000Y-49784000D01*
X51689000Y-36830000D02*
X51689000Y-49530000D01*
D26*
X93123000Y-36925000D02*
X93472000Y-36576000D01*
X99004000Y-36886000D02*
X99060000Y-36830000D01*
D25*
X107695998Y-36830000D02*
X99060000Y-36830000D01*
D23*
X35123000Y-39751000D02*
X35123000Y-38619630D01*
X97226000Y-39624000D02*
X97226000Y-37409000D01*
D25*
X69342000Y-36830000D02*
X72380000Y-33792000D01*
X72380000Y-33792000D02*
X72380000Y-31000000D01*
X51689000Y-36830000D02*
X69342000Y-36830000D01*
D26*
X97226000Y-39680000D02*
X97226000Y-39624000D01*
D27*
X58928000Y-53594000D02*
X71120000Y-53594000D01*
X57785000Y-54737000D02*
X58928000Y-53594000D01*
X70485000Y-53594000D02*
X75565000Y-53594000D01*
D26*
X75057000Y-54864000D02*
X77215996Y-52705004D01*
X77215996Y-51561996D02*
X77215996Y-51054000D01*
X77470000Y-51816000D02*
X77215996Y-51561996D01*
D27*
X75000000Y-54159000D02*
X75000000Y-65460000D01*
X75565000Y-53594000D02*
X75000000Y-54159000D01*
D24*
X118839996Y-36576000D02*
X118855996Y-36560000D01*
X114300000Y-36576000D02*
X118839996Y-36576000D01*
X114100001Y-36775999D02*
X114300000Y-36576000D01*
X114100001Y-37392001D02*
X114100001Y-36775999D01*
D26*
X64191940Y-56388000D02*
X64191940Y-66477940D01*
X64191940Y-66477940D02*
X64262000Y-66548000D01*
D27*
X91052000Y-53594000D02*
X92195000Y-54737000D01*
X75565000Y-53594000D02*
X91052000Y-53594000D01*
D25*
X82380000Y-31000000D02*
X82380000Y-33866000D01*
X82380000Y-33866000D02*
X85344000Y-36830000D01*
X85344000Y-36830000D02*
X86868000Y-36830000D01*
X99060000Y-36830000D02*
X97028000Y-36830000D01*
X97028000Y-36830000D02*
X93472000Y-36830000D01*
X92906315Y-36830000D02*
X93472000Y-36830000D01*
X90424000Y-36830000D02*
X92906315Y-36830000D01*
X86868000Y-36830000D02*
X90424000Y-36830000D01*
D23*
X35110000Y-39738000D02*
X35110000Y-33588000D01*
X35123000Y-39751000D02*
X35110000Y-39738000D01*
X35123000Y-39751000D02*
X35123000Y-37775000D01*
D25*
X51689000Y-36830000D02*
X45466000Y-36830000D01*
D23*
X45466000Y-36830000D02*
X35052000Y-36830000D01*
D26*
X65024000Y-69595984D02*
X65278016Y-69850000D01*
X65024000Y-57150000D02*
X65024000Y-69595984D01*
X81280000Y-42290998D02*
X81280000Y-39116000D01*
D28*
X44318000Y-31750000D02*
X42730000Y-33338000D01*
X49022000Y-31750000D02*
X44318000Y-31750000D01*
X50350000Y-33078000D02*
X49022000Y-31750000D01*
D23*
X42730000Y-33338000D02*
X42730000Y-33588000D01*
X50350000Y-33588000D02*
X50350000Y-33078000D01*
D28*
X106230000Y-31778000D02*
X104730000Y-33278000D01*
X104730000Y-33278000D02*
X104730000Y-33528000D01*
X111026000Y-31778000D02*
X106230000Y-31778000D01*
X112350000Y-33102000D02*
X111026000Y-31778000D01*
X112350000Y-33528000D02*
X112350000Y-33102000D01*
D25*
X85090000Y-59690006D02*
X85090000Y-67564000D01*
X82804000Y-69850000D02*
X85090000Y-67564000D01*
X72644000Y-69850000D02*
X82804000Y-69850000D01*
X85090000Y-67564000D02*
X84590001Y-68063999D01*
X70000000Y-67206000D02*
X72644000Y-69850000D01*
X70000000Y-65460000D02*
X70000000Y-67206000D01*
D26*
X72390000Y-50054000D02*
X86090000Y-50054000D01*
X86090000Y-50054000D02*
X86106000Y-50038000D01*
D28*
X52890000Y-33588000D02*
X52890000Y-32824000D01*
X44000000Y-29522000D02*
X44000000Y-28508000D01*
X44958000Y-30480000D02*
X44000000Y-29522000D01*
X50546000Y-30480000D02*
X44958000Y-30480000D01*
X52890000Y-32824000D02*
X50546000Y-30480000D01*
X114890000Y-32848000D02*
X114890000Y-33528000D01*
X112522000Y-30480000D02*
X114890000Y-32848000D01*
X107696000Y-30480000D02*
X112522000Y-30480000D01*
X106000000Y-28784000D02*
X107696000Y-30480000D01*
X106000000Y-28448000D02*
X106000000Y-28784000D01*
D26*
X85090004Y-56388000D02*
X85090000Y-56387996D01*
X89662000Y-58674000D02*
X87376000Y-56388000D01*
X89662000Y-67056000D02*
X89662000Y-58674000D01*
X87376000Y-56388000D02*
X85090004Y-56388000D01*
X91948000Y-69342000D02*
X89662000Y-67056000D01*
D25*
X77380000Y-29232234D02*
X79353290Y-27258944D01*
X79353290Y-27258944D02*
X87884000Y-27258944D01*
X77380000Y-31000000D02*
X77380000Y-29232234D01*
D24*
X95449106Y-26247990D02*
X94742000Y-26247990D01*
X113620000Y-28448000D02*
X113620000Y-27260000D01*
X113620000Y-27260000D02*
X112607990Y-26247990D01*
X112607990Y-26247990D02*
X95449106Y-26247990D01*
X87884000Y-27258944D02*
X88894954Y-26247990D01*
X88894954Y-26247990D02*
X94034894Y-26247990D01*
X94034894Y-26247990D02*
X94742000Y-26247990D01*
D25*
X63880000Y-27500000D02*
X67380000Y-31000000D01*
X52628000Y-27500000D02*
X63880000Y-27500000D01*
D24*
X51562000Y-28450000D02*
X51562000Y-27051000D01*
X51620000Y-28508000D02*
X51562000Y-28450000D01*
X52179000Y-27051000D02*
X52628000Y-27500000D01*
X51562000Y-27051000D02*
X52179000Y-27051000D01*
M02*
