M48
; DRILL file {KiCad 5.1.5+dfsg1-2build2} date Sat 20 Nov 2021 09:58:34 PM ACDT
; FORMAT={-:-/ absolute / metric / decimal}
; #@! TF.CreationDate,2021-11-20T21:58:34+10:30
; #@! TF.GenerationSoftware,Kicad,Pcbnew,5.1.5+dfsg1-2build2
FMAT,2
METRIC
T1C0.400
T2C0.800
T3C1.097
T4C1.200
T5C1.300
T6C1.100
T7C3.200
%
G90
G05
T1
X46.736Y-37.592
X56.642Y-36.576
X59.69Y-36.576
X64.192Y-56.388
X64.262Y-66.548
X65.024Y-57.15
X65.278Y-69.85
X72.39Y-50.054
X74.422Y-53.848
X76.2Y-45.228
X77.216Y-51.054
X81.28Y-37.846
X81.28Y-40.259
X84.328Y-60.452
X85.09Y-50.038
X85.09Y-56.388
X85.09Y-59.182
X85.852Y-60.452
X88.392Y-37.084
X94.742Y-26.248
X108.712Y-37.592
X118.856Y-36.56
T2
X31.623Y-39.751
X35.123Y-39.751
X37.084Y-68.58
X42.084Y-68.58
X40.894Y-42.672
X44.394Y-42.672
X102.87Y-42.799
X106.37Y-42.799
X91.948Y-66.802
X91.948Y-69.342
X99.568Y-66.802
X99.568Y-69.342
X73.438Y-41.926
X75.438Y-41.926
X56.468Y-68.58
X61.468Y-68.58
X93.726Y-39.624
X97.226Y-39.624
T3
X111.76Y-68.199
X114.3Y-68.199
X45.466Y-67.818
X48.006Y-67.818
X50.546Y-67.818
X53.086Y-67.818
T4
X87.884Y-27.5
X87.884Y-32.58
X97.11Y-33.528
X98.38Y-28.448
X99.65Y-33.528
X100.92Y-28.448
X102.19Y-33.528
X103.46Y-28.448
X104.73Y-33.528
X106.0Y-28.448
X107.27Y-33.528
X108.54Y-28.448
X109.81Y-33.528
X111.08Y-28.448
X112.35Y-33.528
X113.62Y-28.448
X114.89Y-33.528
X35.11Y-33.588
X36.38Y-28.508
X37.65Y-33.588
X38.92Y-28.508
X40.19Y-33.588
X41.46Y-28.508
X42.73Y-33.588
X44.0Y-28.508
X45.27Y-33.588
X46.54Y-28.508
X47.81Y-33.588
X49.08Y-28.508
X50.35Y-33.588
X51.62Y-28.508
X52.89Y-33.588
X61.976Y-27.5
X61.976Y-32.58
X50.285Y-54.737
X57.785Y-54.737
X92.195Y-54.737
X99.695Y-54.737
X31.235Y-54.737
X38.735Y-54.737
X111.245Y-54.737
X118.745Y-54.737
T5
X67.38Y-31.0
X72.38Y-31.0
X77.38Y-31.0
X82.38Y-31.0
X70.0Y-65.46
X75.0Y-65.46
X80.0Y-65.46
T6
X111.76Y-70.739
X114.3Y-70.739
T7
X121.0Y-69.0
X29.0Y-29.0
X121.0Y-29.0
X29.0Y-69.0
T0
M30
