M48
; DRILL file {KiCad 5.1.5+dfsg1-2build2} date Wed 24 Nov 2021 10:49:46 PM ACDT
; FORMAT={-:-/ absolute / metric / decimal}
; #@! TF.CreationDate,2021-11-24T22:49:46+10:30
; #@! TF.GenerationSoftware,Kicad,Pcbnew,5.1.5+dfsg1-2build2
FMAT,2
METRIC
T1C0.400
T2C0.800
T3C1.097
T4C1.200
T5C1.300
T6C1.100
T7C3.200
%
G90
G05
T1
X45.466Y-36.322
X56.642Y-36.576
X58.42Y-36.068
X63.246Y-66.548
X64.192Y-56.388
X65.024Y-57.404
X65.024Y-67.31
X72.39Y-50.054
X74.422Y-54.61
X77.216Y-51.308
X77.47Y-35.306
X78.74Y-34.544
X78.74Y-40.64
X78.74Y-42.545
X81.28Y-46.228
X84.328Y-60.452
X85.09Y-59.182
X85.344Y-56.642
X85.852Y-60.452
X86.614Y-49.276
X88.646Y-45.72
X91.44Y-36.068
X108.712Y-37.592
X118.856Y-36.56
T2
X32.512Y-39.751
X36.012Y-39.751
X27.686Y-38.862
X27.686Y-43.862
X40.894Y-42.672
X44.394Y-42.672
X102.87Y-42.799
X106.37Y-42.799
X91.948Y-66.802
X91.948Y-69.342
X99.568Y-66.802
X99.568Y-69.342
X85.424Y-41.148
X90.424Y-41.148
X94.488Y-39.624
X97.988Y-39.624
T3
X111.76Y-67.818
X114.3Y-67.818
X45.466Y-67.818
X48.006Y-67.818
X50.546Y-67.818
X53.086Y-67.818
T4
X87.884Y-27.94
X87.884Y-33.02
X97.11Y-33.528
X98.38Y-28.448
X99.65Y-33.528
X100.92Y-28.448
X102.19Y-33.528
X103.46Y-28.448
X104.73Y-33.528
X106.0Y-28.448
X107.27Y-33.528
X108.54Y-28.448
X109.81Y-33.528
X111.08Y-28.448
X112.35Y-33.528
X113.62Y-28.448
X114.89Y-33.528
X35.11Y-33.588
X36.38Y-28.508
X37.65Y-33.588
X38.92Y-28.508
X40.19Y-33.588
X41.46Y-28.508
X42.73Y-33.588
X44.0Y-28.508
X45.27Y-33.588
X46.54Y-28.508
X47.81Y-33.588
X49.08Y-28.508
X50.35Y-33.588
X51.62Y-28.508
X52.89Y-33.588
X61.976Y-27.94
X61.976Y-33.02
X50.285Y-54.737
X57.785Y-54.737
X92.195Y-54.737
X99.695Y-54.737
X31.235Y-54.737
X38.735Y-54.737
X111.245Y-54.737
X118.745Y-54.737
T5
X67.38Y-31.0
X72.38Y-31.0
X77.38Y-31.0
X82.38Y-31.0
X70.0Y-65.46
X75.0Y-65.46
X80.0Y-65.46
T6
X111.76Y-70.358
X114.3Y-70.358
T7
X121.0Y-69.0
X29.0Y-69.0
T0
M30
