G04 #@! TF.GenerationSoftware,KiCad,Pcbnew,5.1.5+dfsg1-2build2*
G04 #@! TF.CreationDate,2022-04-24T21:51:12+09:30*
G04 #@! TF.ProjectId,tda7293,74646137-3239-4332-9e6b-696361645f70,B*
G04 #@! TF.SameCoordinates,Original*
G04 #@! TF.FileFunction,Paste,Top*
G04 #@! TF.FilePolarity,Positive*
%FSLAX46Y46*%
G04 Gerber Fmt 4.6, Leading zero omitted, Abs format (unit mm)*
G04 Created by KiCad (PCBNEW 5.1.5+dfsg1-2build2) date 2022-04-24 21:51:12*
%MOMM*%
%LPD*%
G04 APERTURE LIST*
%ADD10R,0.700000X1.300000*%
%ADD11R,1.300000X0.700000*%
%ADD12R,1.250000X1.000000*%
%ADD13R,1.000000X1.250000*%
%ADD14R,1.700000X1.300000*%
%ADD15R,1.200000X1.200000*%
%ADD16R,0.900000X0.800000*%
G04 APERTURE END LIST*
D10*
X69950000Y-65400000D03*
X68050000Y-65400000D03*
X107450000Y-63000000D03*
X105550000Y-63000000D03*
X102450000Y-63000000D03*
X100550000Y-63000000D03*
D11*
X117800000Y-69626000D03*
X117800000Y-67726000D03*
X87000000Y-38350000D03*
X87000000Y-36450000D03*
X37000000Y-38350000D03*
X37000000Y-36450000D03*
D12*
X57000000Y-44000000D03*
X57000000Y-46000000D03*
X107000000Y-44000000D03*
X107000000Y-46000000D03*
X80400000Y-55000000D03*
X80400000Y-53000000D03*
X52400000Y-38000000D03*
X52400000Y-36000000D03*
X102400000Y-38200000D03*
X102400000Y-36200000D03*
D13*
X68000000Y-63000000D03*
X70000000Y-63000000D03*
X70000000Y-57000000D03*
X68000000Y-57000000D03*
D12*
X55000000Y-36000000D03*
X55000000Y-38000000D03*
X105000000Y-38200000D03*
X105000000Y-36200000D03*
X82900000Y-53000000D03*
X82900000Y-55000000D03*
D14*
X117800000Y-75426000D03*
X117800000Y-71926000D03*
D15*
X117800000Y-77876000D03*
X117800000Y-80076000D03*
D14*
X72000000Y-46750000D03*
X72000000Y-43250000D03*
D16*
X70000000Y-54000000D03*
X68000000Y-54950000D03*
X68000000Y-53050000D03*
X78000000Y-54950000D03*
X78000000Y-53050000D03*
X76000000Y-54000000D03*
D11*
X34200000Y-27400000D03*
X34200000Y-29300000D03*
X34200000Y-32900000D03*
X34200000Y-31000000D03*
X37000000Y-45150000D03*
X37000000Y-43250000D03*
X84200000Y-29200000D03*
X84200000Y-27300000D03*
X84200000Y-32750000D03*
X84200000Y-30850000D03*
X73500000Y-59950000D03*
X73500000Y-58050000D03*
X87000000Y-43250000D03*
X87000000Y-45150000D03*
X72000000Y-54450000D03*
X72000000Y-52550000D03*
X74000000Y-52550000D03*
X74000000Y-54450000D03*
X76000000Y-58050000D03*
X76000000Y-59950000D03*
X37000000Y-39850000D03*
X37000000Y-41750000D03*
D10*
X42550000Y-63000000D03*
X44450000Y-63000000D03*
X49450000Y-63000000D03*
X47550000Y-63000000D03*
D11*
X72000000Y-49050000D03*
X72000000Y-50950000D03*
X87000000Y-39850000D03*
X87000000Y-41750000D03*
D16*
X68000000Y-60000000D03*
X70000000Y-59050000D03*
X70000000Y-60950000D03*
M02*
