G04 #@! TF.GenerationSoftware,KiCad,Pcbnew,5.1.5+dfsg1-2build2*
G04 #@! TF.CreationDate,2021-11-20T21:58:27+10:30*
G04 #@! TF.ProjectId,tda7293,74646137-3239-4332-9e6b-696361645f70,rev?*
G04 #@! TF.SameCoordinates,Original*
G04 #@! TF.FileFunction,Paste,Top*
G04 #@! TF.FilePolarity,Positive*
%FSLAX46Y46*%
G04 Gerber Fmt 4.6, Leading zero omitted, Abs format (unit mm)*
G04 Created by KiCad (PCBNEW 5.1.5+dfsg1-2build2) date 2021-11-20 21:58:27*
%MOMM*%
%LPD*%
G04 APERTURE LIST*
%ADD10R,0.700000X1.300000*%
%ADD11R,1.200000X1.200000*%
%ADD12R,1.000000X1.600000*%
%ADD13R,1.250000X1.000000*%
%ADD14R,1.000000X1.250000*%
%ADD15R,1.700000X1.300000*%
%ADD16R,0.900000X0.800000*%
%ADD17R,1.300000X0.700000*%
%ADD18R,0.800000X0.900000*%
G04 APERTURE END LIST*
D10*
X69530000Y-55118000D03*
X67630000Y-55118000D03*
D11*
X73320000Y-55118000D03*
X71120000Y-55118000D03*
D10*
X69530000Y-52578000D03*
X67630000Y-52578000D03*
X79248000Y-52578000D03*
X81148000Y-52578000D03*
D11*
X73354000Y-52578000D03*
X71154000Y-52578000D03*
X75410000Y-52578000D03*
X77610000Y-52578000D03*
D12*
X105894000Y-40894000D03*
X102894000Y-40894000D03*
X105894000Y-38735000D03*
X102894000Y-38735000D03*
X105894000Y-36576000D03*
X102894000Y-36576000D03*
X43918000Y-40894000D03*
X40918000Y-40894000D03*
X43918000Y-38735000D03*
X40918000Y-38735000D03*
X43918000Y-36576000D03*
X40918000Y-36576000D03*
D13*
X58166000Y-34560000D03*
X58166000Y-36560000D03*
X89662000Y-37068000D03*
X89662000Y-35068000D03*
D14*
X79994000Y-42291000D03*
X77994000Y-42291000D03*
X46752000Y-36322000D03*
X48752000Y-36322000D03*
X110728000Y-36322000D03*
X108728000Y-36322000D03*
X71104000Y-50054000D03*
X69104000Y-50054000D03*
X69104000Y-44466000D03*
X71104000Y-44466000D03*
D13*
X55372000Y-34560000D03*
X55372000Y-36560000D03*
X117348000Y-34560000D03*
X117348000Y-36560000D03*
D15*
X104648000Y-69822000D03*
X104648000Y-66322000D03*
D16*
X77232000Y-45228000D03*
X79232000Y-44278000D03*
X79232000Y-46178000D03*
X77232000Y-48088000D03*
X77232000Y-49988000D03*
X79232000Y-49038000D03*
D17*
X33528000Y-29906000D03*
X33528000Y-28006000D03*
X32639000Y-34097000D03*
X32639000Y-32197000D03*
X34544000Y-67945000D03*
X34544000Y-69845000D03*
X94615000Y-28895000D03*
X94615000Y-30795000D03*
X94615000Y-32070000D03*
X94615000Y-33970000D03*
D10*
X74798000Y-44974000D03*
X72898000Y-44974000D03*
D17*
X64008000Y-69845000D03*
X64008000Y-67945000D03*
X81280000Y-44278000D03*
X81280000Y-46178000D03*
X81280000Y-49988000D03*
X81280000Y-48088000D03*
D10*
X72898000Y-47006000D03*
X74798000Y-47006000D03*
D17*
X102362000Y-66868000D03*
X102362000Y-68768000D03*
D18*
X70104000Y-46260000D03*
X71054000Y-48260000D03*
X69154000Y-48260000D03*
M02*
