G04 #@! TF.GenerationSoftware,KiCad,Pcbnew,5.1.5+dfsg1-2build2*
G04 #@! TF.CreationDate,2022-04-24T21:51:12+09:30*
G04 #@! TF.ProjectId,tda7293,74646137-3239-4332-9e6b-696361645f70,B*
G04 #@! TF.SameCoordinates,Original*
G04 #@! TF.FileFunction,Copper,L2,Bot*
G04 #@! TF.FilePolarity,Positive*
%FSLAX46Y46*%
G04 Gerber Fmt 4.6, Leading zero omitted, Abs format (unit mm)*
G04 Created by KiCad (PCBNEW 5.1.5+dfsg1-2build2) date 2022-04-24 21:51:12*
%MOMM*%
%LPD*%
G04 APERTURE LIST*
%ADD10C,3.000000*%
%ADD11C,1.600000*%
%ADD12C,1.800000*%
%ADD13R,1.998980X1.998980*%
%ADD14O,1.998980X1.998980*%
%ADD15R,1.600000X1.600000*%
%ADD16C,2.400000*%
%ADD17R,2.400000X2.400000*%
%ADD18C,2.350000*%
%ADD19O,2.400000X2.400000*%
%ADD20O,1.600000X1.600000*%
%ADD21C,0.800000*%
%ADD22C,0.250000*%
%ADD23C,2.000000*%
%ADD24C,3.000000*%
%ADD25C,1.000000*%
%ADD26C,2.500000*%
%ADD27C,4.000000*%
G04 APERTURE END LIST*
D10*
X102000000Y-80730000D03*
X102000000Y-85810000D03*
D11*
X41000000Y-38000000D03*
X41000000Y-43000000D03*
D12*
X37110000Y-33580000D03*
X38380000Y-28500000D03*
X39650000Y-33580000D03*
X40920000Y-28500000D03*
X42190000Y-33580000D03*
X43460000Y-28500000D03*
X44730000Y-33580000D03*
X46000000Y-28500000D03*
X47270000Y-33580000D03*
X48540000Y-28500000D03*
X49810000Y-33580000D03*
X51080000Y-28500000D03*
X52350000Y-33580000D03*
X53620000Y-28500000D03*
X54890000Y-33580000D03*
D13*
X79000000Y-45000000D03*
D14*
X79000000Y-47540000D03*
D10*
X39000000Y-85810000D03*
X39000000Y-80730000D03*
D13*
X28800000Y-45000000D03*
D14*
X28800000Y-47540000D03*
D15*
X79000000Y-31000000D03*
D11*
X79000000Y-28500000D03*
D15*
X29000000Y-31000000D03*
D11*
X29000000Y-28500000D03*
D15*
X29800000Y-36600000D03*
D11*
X29800000Y-40100000D03*
X79800000Y-40200000D03*
D15*
X79800000Y-36700000D03*
D11*
X91000000Y-43000000D03*
X91000000Y-38000000D03*
D16*
X30500000Y-58000000D03*
D17*
X38000000Y-58000000D03*
X96000000Y-58000000D03*
D16*
X88500000Y-58000000D03*
D17*
X61500000Y-58000000D03*
D16*
X54000000Y-58000000D03*
X112000000Y-58000000D03*
D17*
X119500000Y-58000000D03*
D18*
X54000000Y-71000000D03*
X48000000Y-71000000D03*
X64000000Y-71000000D03*
X70000000Y-71000000D03*
X80000000Y-71000000D03*
X86000000Y-71000000D03*
X102000000Y-71000000D03*
X96000000Y-71000000D03*
D10*
X61000000Y-33540000D03*
X61000000Y-28460000D03*
D14*
X113524000Y-84000000D03*
D13*
X110984000Y-84000000D03*
D10*
X70000000Y-28460000D03*
X70000000Y-33540000D03*
X111000000Y-28460000D03*
X111000000Y-33540000D03*
X120000000Y-28460000D03*
X120000000Y-33540000D03*
X67000000Y-85810000D03*
X67000000Y-80730000D03*
X48000000Y-80730000D03*
X48000000Y-85810000D03*
X83000000Y-85810000D03*
X83000000Y-80730000D03*
D16*
X61000000Y-41000000D03*
D19*
X61000000Y-46080000D03*
X111000000Y-46080000D03*
D16*
X111000000Y-41000000D03*
D12*
X104890000Y-33580000D03*
X103620000Y-28500000D03*
X102350000Y-33580000D03*
X101080000Y-28500000D03*
X99810000Y-33580000D03*
X98540000Y-28500000D03*
X97270000Y-33580000D03*
X96000000Y-28500000D03*
X94730000Y-33580000D03*
X93460000Y-28500000D03*
X92190000Y-33580000D03*
X90920000Y-28500000D03*
X89650000Y-33580000D03*
X88380000Y-28500000D03*
X87110000Y-33580000D03*
D20*
X110984000Y-70380000D03*
X113524000Y-78000000D03*
X113524000Y-70380000D03*
D15*
X110984000Y-78000000D03*
D21*
X73500000Y-40500000D03*
X76200000Y-49875000D03*
X76200000Y-51600000D03*
X73000000Y-38300046D03*
X81700000Y-55000000D03*
X75000000Y-62200000D03*
X77000000Y-62700000D03*
D22*
X51140000Y-31100000D02*
X48540000Y-28500000D01*
X56900000Y-31100000D02*
X51140000Y-31100000D01*
X57900000Y-32100000D02*
X56900000Y-31100000D01*
X57900000Y-34500000D02*
X57900000Y-32100000D01*
X60700000Y-37300000D02*
X57900000Y-34500000D01*
X73400000Y-37300000D02*
X60700000Y-37300000D01*
X74200000Y-38100000D02*
X73400000Y-37300000D01*
X74200000Y-39800000D02*
X74200000Y-38100000D01*
X73500000Y-40500000D02*
X74200000Y-39800000D01*
X52350000Y-34852792D02*
X52350000Y-33580000D01*
D23*
X50800000Y-36400000D02*
X46800000Y-36400000D01*
D24*
X70000000Y-71000000D02*
X64000000Y-71000000D01*
D23*
X52350000Y-35850000D02*
X52350000Y-33580000D01*
X51000000Y-37200000D02*
X52350000Y-35850000D01*
X102350000Y-36050000D02*
X102350000Y-33580000D01*
D24*
X59000000Y-66000000D02*
X64000000Y-71000000D01*
X45800000Y-66000000D02*
X59000000Y-66000000D01*
X38000000Y-58200000D02*
X45800000Y-66000000D01*
X38000000Y-58000000D02*
X38000000Y-58200000D01*
X101300000Y-52900000D02*
X96200000Y-58000000D01*
X96200000Y-58000000D02*
X96000000Y-58000000D01*
X101900000Y-36400000D02*
X101900000Y-52200000D01*
X51900000Y-36500000D02*
X51900000Y-44200000D01*
X51500000Y-44500000D02*
X38000000Y-58000000D01*
D23*
X44730000Y-34430000D02*
X44730000Y-33580000D01*
X46700000Y-36400000D02*
X44730000Y-34430000D01*
X96100000Y-36500000D02*
X101600000Y-36500000D01*
X94730000Y-35130000D02*
X96100000Y-36500000D01*
X94730000Y-33580000D02*
X94730000Y-35130000D01*
X55000000Y-33690000D02*
X54890000Y-33580000D01*
X54890000Y-33580000D02*
X54890000Y-38110000D01*
D24*
X86000000Y-71000000D02*
X80000000Y-71000000D01*
X93000000Y-64000000D02*
X86000000Y-71000000D01*
X106000000Y-64000000D02*
X93000000Y-64000000D01*
X112000000Y-58000000D02*
X106000000Y-64000000D01*
D23*
X104890000Y-33580000D02*
X104890000Y-40200000D01*
D24*
X105400000Y-36600000D02*
X105400000Y-49090000D01*
D25*
X104890000Y-32990000D02*
X104890000Y-33580000D01*
X102900000Y-31000000D02*
X104890000Y-32990000D01*
X97200000Y-31000000D02*
X102900000Y-31000000D01*
X96000000Y-29800000D02*
X97200000Y-31000000D01*
X96000000Y-28500000D02*
X96000000Y-29800000D01*
D24*
X54000000Y-58000000D02*
X55000000Y-57000000D01*
X105400000Y-51400000D02*
X112000000Y-58000000D01*
X105400000Y-49200000D02*
X105400000Y-51400000D01*
X55400000Y-36700000D02*
X55500000Y-36600000D01*
X55400000Y-57000000D02*
X55400000Y-36700000D01*
D22*
X76200000Y-49875000D02*
X76200000Y-51500000D01*
X76200000Y-51500000D02*
X76100000Y-51600000D01*
X49050000Y-31800000D02*
X47270000Y-33580000D01*
X56700000Y-31800000D02*
X49050000Y-31800000D01*
X57300000Y-32400000D02*
X56700000Y-31800000D01*
X57300000Y-34950000D02*
X57300000Y-32400000D01*
X60650046Y-38300046D02*
X57300000Y-34950000D01*
X73000000Y-38300046D02*
X60650046Y-38300046D01*
D24*
X54000000Y-71000000D02*
X48000000Y-71000000D01*
X67000000Y-80730000D02*
X67000000Y-85810000D01*
X54000000Y-71540000D02*
X54000000Y-71000000D01*
X63190000Y-80730000D02*
X54000000Y-71540000D01*
X67000000Y-80730000D02*
X63190000Y-80730000D01*
X96000000Y-71000000D02*
X102000000Y-71000000D01*
X83000000Y-80730000D02*
X83000000Y-85810000D01*
X96000000Y-71540000D02*
X96000000Y-71000000D01*
X86810000Y-80730000D02*
X96000000Y-71540000D01*
X83000000Y-80730000D02*
X86810000Y-80730000D01*
D25*
X36000000Y-47800000D02*
X37110000Y-46690000D01*
X27000000Y-56800000D02*
X36000000Y-47800000D01*
X37110000Y-34852792D02*
X37110000Y-33580000D01*
X37110000Y-46600000D02*
X37110000Y-34852792D01*
X27000000Y-56800000D02*
X27400000Y-56400000D01*
X39000000Y-85810000D02*
X39000000Y-80730000D01*
X27000000Y-67460000D02*
X27000000Y-56800000D01*
X39000000Y-79460000D02*
X27000000Y-67460000D01*
X87110000Y-49590000D02*
X81700000Y-55000000D01*
X87110000Y-33580000D02*
X87110000Y-49590000D01*
X75000000Y-61700000D02*
X75000000Y-62200000D01*
X81700000Y-55000000D02*
X75000000Y-61700000D01*
X75000000Y-62200000D02*
X75000000Y-89000000D01*
D22*
X108712000Y-76454000D02*
X113524000Y-71642000D01*
X113524000Y-71642000D02*
X113524000Y-70380000D01*
X108712000Y-87288000D02*
X108712000Y-76454000D01*
X107000000Y-89000000D02*
X108712000Y-87288000D01*
X75000000Y-89000000D02*
X107000000Y-89000000D01*
D25*
X42090000Y-88900000D02*
X39000000Y-85810000D01*
X43688000Y-88900000D02*
X42090000Y-88900000D01*
X75000000Y-89000000D02*
X42164000Y-89000000D01*
X43460000Y-29740000D02*
X43460000Y-28500000D01*
X42200000Y-31000000D02*
X43460000Y-29740000D01*
X29000000Y-31000000D02*
X42200000Y-31000000D01*
X93460000Y-29740000D02*
X93460000Y-28500000D01*
X92200000Y-31000000D02*
X93460000Y-29740000D01*
X79000000Y-31000000D02*
X92200000Y-31000000D01*
D22*
X61000000Y-28460000D02*
X60960000Y-28500000D01*
D26*
X53620000Y-28500000D02*
X56000000Y-28500000D01*
D27*
X56300000Y-28500000D02*
X60960000Y-28500000D01*
X56260000Y-28460000D02*
X56300000Y-28500000D01*
D25*
X52200000Y-26200000D02*
X53620000Y-27620000D01*
X31350000Y-26200000D02*
X52200000Y-26200000D01*
X53620000Y-27620000D02*
X53620000Y-28500000D01*
X29050000Y-28500000D02*
X31350000Y-26200000D01*
X29000000Y-28500000D02*
X29050000Y-28500000D01*
D22*
X103660000Y-28460000D02*
X103620000Y-28500000D01*
D25*
X111000000Y-41000000D02*
X111000000Y-40540000D01*
D26*
X103620000Y-28500000D02*
X105500000Y-28500000D01*
D27*
X105540000Y-28460000D02*
X105500000Y-28500000D01*
X111000000Y-28460000D02*
X105540000Y-28460000D01*
D25*
X103620000Y-27420000D02*
X103620000Y-28500000D01*
X102600000Y-26400000D02*
X103620000Y-27420000D01*
X81100000Y-26400000D02*
X102600000Y-26400000D01*
X79000000Y-28500000D02*
X81100000Y-26400000D01*
D22*
X110984000Y-70753000D02*
X110984000Y-70380000D01*
X108492000Y-73245000D02*
X110984000Y-70753000D01*
X107950000Y-73702000D02*
X108500000Y-73152000D01*
X107950000Y-86614000D02*
X107950000Y-73702000D01*
X106172000Y-88392000D02*
X107950000Y-86614000D01*
X78192000Y-88392000D02*
X106172000Y-88392000D01*
X76000000Y-86200000D02*
X78192000Y-88392000D01*
X76000000Y-63700000D02*
X76000000Y-86200000D01*
X77000000Y-62700000D02*
X76000000Y-63700000D01*
M02*
