G04 #@! TF.GenerationSoftware,KiCad,Pcbnew,5.1.5+dfsg1-2build2*
G04 #@! TF.CreationDate,2021-11-20T23:12:37+10:30*
G04 #@! TF.ProjectId,tda7293,74646137-3239-4332-9e6b-696361645f70,rev?*
G04 #@! TF.SameCoordinates,Original*
G04 #@! TF.FileFunction,Copper,L1,Top*
G04 #@! TF.FilePolarity,Positive*
%FSLAX46Y46*%
G04 Gerber Fmt 4.6, Leading zero omitted, Abs format (unit mm)*
G04 Created by KiCad (PCBNEW 5.1.5+dfsg1-2build2) date 2021-11-20 23:12:37*
%MOMM*%
%LPD*%
G04 APERTURE LIST*
%ADD10R,0.700000X1.300000*%
%ADD11R,1.200000X1.200000*%
%ADD12R,1.000000X1.600000*%
%ADD13R,1.600000X1.600000*%
%ADD14C,1.600000*%
%ADD15R,1.998980X1.998980*%
%ADD16O,1.998980X1.998980*%
%ADD17C,1.000000*%
%ADD18R,1.250000X1.000000*%
%ADD19R,1.000000X1.250000*%
%ADD20C,2.400000*%
%ADD21R,2.400000X2.400000*%
%ADD22R,1.700000X1.300000*%
%ADD23C,2.500000*%
%ADD24R,2.500000X2.500000*%
%ADD25R,0.900000X0.800000*%
%ADD26R,1.300000X0.700000*%
%ADD27O,2.400000X2.400000*%
%ADD28O,1.500000X2.000000*%
%ADD29O,1.600000X1.600000*%
%ADD30R,0.800000X0.900000*%
%ADD31C,0.800000*%
%ADD32C,0.250000*%
%ADD33C,1.000000*%
%ADD34C,2.000000*%
%ADD35C,3.000000*%
%ADD36C,0.750000*%
G04 APERTURE END LIST*
D10*
X54422000Y-38608000D03*
X56322000Y-38608000D03*
X46802000Y-38354000D03*
X48702000Y-38354000D03*
X69530000Y-55118000D03*
X67630000Y-55118000D03*
D11*
X73320000Y-55118000D03*
X71120000Y-55118000D03*
D10*
X69530000Y-52578000D03*
X67630000Y-52578000D03*
X79248000Y-52578000D03*
X81148000Y-52578000D03*
D11*
X73354000Y-52578000D03*
X71154000Y-52578000D03*
X75410000Y-52578000D03*
X77610000Y-52578000D03*
D12*
X105894000Y-40894000D03*
X102894000Y-40894000D03*
X105894000Y-38735000D03*
X102894000Y-38735000D03*
X105894000Y-36576000D03*
X102894000Y-36576000D03*
X43918000Y-40894000D03*
X40918000Y-40894000D03*
X43918000Y-38735000D03*
X40918000Y-38735000D03*
X43918000Y-36576000D03*
X40918000Y-36576000D03*
D13*
X102870000Y-42799000D03*
D14*
X106370000Y-42799000D03*
D13*
X93726000Y-39624000D03*
D14*
X97226000Y-39624000D03*
D13*
X40894000Y-42672000D03*
D14*
X44394000Y-42672000D03*
D13*
X31623000Y-39751000D03*
D14*
X35123000Y-39751000D03*
D15*
X111760000Y-68199000D03*
D16*
X114300000Y-68199000D03*
X50546000Y-67818000D03*
X48006000Y-67818000D03*
D15*
X45466000Y-67818000D03*
D16*
X53086000Y-67818000D03*
D17*
X26500000Y-64000000D03*
X121000000Y-34000000D03*
X29000000Y-34000000D03*
X121000000Y-64000000D03*
D14*
X42084000Y-68580000D03*
X37084000Y-68580000D03*
D18*
X58420000Y-32274000D03*
X58420000Y-34274000D03*
D14*
X61468000Y-68580000D03*
X56468000Y-68580000D03*
D18*
X91440000Y-34274000D03*
X91440000Y-32274000D03*
D19*
X79994000Y-42291000D03*
X77994000Y-42291000D03*
D20*
X31235000Y-54737000D03*
D21*
X38735000Y-54737000D03*
D19*
X46752000Y-36322000D03*
X48752000Y-36322000D03*
D21*
X99695000Y-54737000D03*
D20*
X92195000Y-54737000D03*
D19*
X110728000Y-36322000D03*
X108728000Y-36322000D03*
X71104000Y-50054000D03*
X69104000Y-50054000D03*
X69104000Y-44466000D03*
X71104000Y-44466000D03*
D21*
X57785000Y-54737000D03*
D20*
X50285000Y-54737000D03*
D18*
X55372000Y-34560000D03*
X55372000Y-36560000D03*
D20*
X111245000Y-54737000D03*
D21*
X118745000Y-54737000D03*
D18*
X117348000Y-34560000D03*
X117348000Y-36560000D03*
D22*
X104648000Y-69822000D03*
X104648000Y-66322000D03*
D23*
X82380000Y-31000000D03*
X77380000Y-31000000D03*
D24*
X67380000Y-31000000D03*
D23*
X72380000Y-31000000D03*
X80000000Y-65460000D03*
D24*
X70000000Y-65460000D03*
D23*
X75000000Y-65460000D03*
D25*
X77232000Y-45228000D03*
X79232000Y-44278000D03*
X79232000Y-46178000D03*
X77232000Y-48088000D03*
X77232000Y-49988000D03*
X79232000Y-49038000D03*
D26*
X33528000Y-30922000D03*
X33528000Y-29022000D03*
X32639000Y-34097000D03*
X32639000Y-32197000D03*
X34544000Y-67945000D03*
X34544000Y-69845000D03*
D20*
X61976000Y-27500000D03*
D27*
X61976000Y-32580000D03*
D26*
X94615000Y-28895000D03*
X94615000Y-30795000D03*
X94615000Y-32070000D03*
X94615000Y-33970000D03*
D10*
X74798000Y-44974000D03*
X72898000Y-44974000D03*
D26*
X64008000Y-69845000D03*
X64008000Y-67945000D03*
D27*
X87884000Y-32580000D03*
D20*
X87884000Y-27500000D03*
D26*
X81280000Y-44278000D03*
X81280000Y-46178000D03*
X81280000Y-49988000D03*
X81280000Y-48088000D03*
D10*
X72898000Y-47006000D03*
X74798000Y-47006000D03*
D26*
X102362000Y-66868000D03*
X102362000Y-68768000D03*
D28*
X52890000Y-33588000D03*
X51620000Y-28508000D03*
X50350000Y-33588000D03*
X49080000Y-28508000D03*
X47810000Y-33588000D03*
X46540000Y-28508000D03*
X45270000Y-33588000D03*
X44000000Y-28508000D03*
X42730000Y-33588000D03*
X41460000Y-28508000D03*
X40190000Y-33588000D03*
X38920000Y-28508000D03*
X37650000Y-33588000D03*
X36380000Y-28508000D03*
X35110000Y-33588000D03*
X114890000Y-33528000D03*
X113620000Y-28448000D03*
X112350000Y-33528000D03*
X111080000Y-28448000D03*
X109810000Y-33528000D03*
X108540000Y-28448000D03*
X107270000Y-33528000D03*
X106000000Y-28448000D03*
X104730000Y-33528000D03*
X103460000Y-28448000D03*
X102190000Y-33528000D03*
X100920000Y-28448000D03*
X99650000Y-33528000D03*
X98380000Y-28448000D03*
X97110000Y-33528000D03*
D29*
X91948000Y-69342000D03*
X99568000Y-66802000D03*
X91948000Y-66802000D03*
D13*
X99568000Y-69342000D03*
D30*
X70104000Y-46260000D03*
X71054000Y-48260000D03*
X69154000Y-48260000D03*
D17*
X58420000Y-36068000D03*
D31*
X77215996Y-51054000D03*
D17*
X118855996Y-36560000D03*
X56642000Y-36576000D03*
D31*
X74422000Y-53847994D03*
X64191940Y-56388000D03*
X64262000Y-66548000D03*
D17*
X108712000Y-37592000D03*
X45466002Y-36322000D03*
D31*
X91440000Y-36068000D03*
X65024000Y-57150000D03*
X65278016Y-69850000D03*
X81280000Y-42290998D03*
X81280000Y-39116000D03*
X84328000Y-60452000D03*
X85852000Y-60452000D03*
X72390000Y-50054000D03*
X85090000Y-59182000D03*
X86106000Y-50038000D03*
X85090000Y-56387996D03*
D17*
X94742000Y-26247990D03*
D32*
X69104000Y-50054000D02*
X69104000Y-49816000D01*
X69104000Y-48310000D02*
X69154000Y-48260000D01*
X69104000Y-50054000D02*
X69104000Y-48310000D01*
D33*
X58436000Y-34544000D02*
X58436000Y-36052000D01*
D32*
X48000000Y-67824000D02*
X48006000Y-67818000D01*
X48000000Y-68500000D02*
X48000000Y-67824000D01*
X46142000Y-70358000D02*
X48000000Y-68500000D01*
X78374000Y-68834000D02*
X75000000Y-65460000D01*
X88784630Y-68834000D02*
X78374000Y-68834000D01*
X90816630Y-66802000D02*
X88784630Y-68834000D01*
X91948000Y-66802000D02*
X90816630Y-66802000D01*
X69154000Y-44516000D02*
X69104000Y-44466000D01*
X69154000Y-48260000D02*
X69154000Y-44516000D01*
X35957000Y-70358000D02*
X36195000Y-70358000D01*
X34544000Y-69845000D02*
X35444000Y-69845000D01*
X36195000Y-70358000D02*
X46142000Y-70358000D01*
X35444000Y-69845000D02*
X35957000Y-70358000D01*
X36096000Y-70358000D02*
X36195000Y-70358000D01*
X35123000Y-43363000D02*
X35123000Y-39751000D01*
X27996000Y-50490000D02*
X35123000Y-43363000D01*
X27996000Y-57714000D02*
X27996000Y-50490000D01*
X33401000Y-63119000D02*
X27996000Y-57714000D01*
X33401000Y-69602000D02*
X33401000Y-63119000D01*
X33644000Y-69845000D02*
X33401000Y-69602000D01*
X34544000Y-69845000D02*
X33644000Y-69845000D01*
X77232000Y-49988000D02*
X77232000Y-51037996D01*
X77232000Y-51037996D02*
X77215996Y-51054000D01*
X73354000Y-52578000D02*
X73354000Y-51728000D01*
X73354000Y-51728000D02*
X72825999Y-51199999D01*
X69374999Y-51199999D02*
X72825999Y-51199999D01*
X69104000Y-50929000D02*
X69374999Y-51199999D01*
X69104000Y-50054000D02*
X69104000Y-50929000D01*
X119110000Y-36560000D02*
X118855996Y-36560000D01*
D33*
X55388000Y-36576000D02*
X56642000Y-36576000D01*
X55372000Y-36560000D02*
X55388000Y-36576000D01*
X117348000Y-36560000D02*
X118855996Y-36560000D01*
D32*
X74421994Y-53848000D02*
X74422000Y-53847994D01*
X68000000Y-53848000D02*
X74421994Y-53848000D01*
X67630000Y-54218000D02*
X68000000Y-53848000D01*
X67630000Y-55118000D02*
X67630000Y-54218000D01*
X73354000Y-53796000D02*
X73406000Y-53848000D01*
X73354000Y-52578000D02*
X73354000Y-53796000D01*
X53086000Y-67818000D02*
X54102000Y-66802000D01*
X63108000Y-67945000D02*
X61965000Y-66802000D01*
X61965000Y-66802000D02*
X54102000Y-66802000D01*
X64008000Y-67945000D02*
X63108000Y-67945000D01*
X64008000Y-67945000D02*
X64008000Y-66802000D01*
X64008000Y-66802000D02*
X64262000Y-66548000D01*
D33*
X108712000Y-36884894D02*
X108712000Y-37592000D01*
X108728000Y-36322000D02*
X108712000Y-36338000D01*
X108712000Y-36338000D02*
X108712000Y-36884894D01*
D32*
X56322000Y-36896000D02*
X56642000Y-36576000D01*
X56322000Y-38608000D02*
X56322000Y-36896000D01*
D33*
X46736000Y-36322000D02*
X45466002Y-36322000D01*
D32*
X46802000Y-36372000D02*
X46752000Y-36322000D01*
X46802000Y-38354000D02*
X46802000Y-36372000D01*
X69104000Y-44466000D02*
X69104000Y-43720000D01*
X70533000Y-42291000D02*
X77994000Y-42291000D01*
X69104000Y-43720000D02*
X70533000Y-42291000D01*
X91456000Y-36052000D02*
X91440000Y-36068000D01*
D33*
X91456000Y-34290000D02*
X91456000Y-36052000D01*
X91440000Y-34274000D02*
X91456000Y-34290000D01*
D32*
X64191940Y-55822315D02*
X64191940Y-56388000D01*
X64191940Y-45790060D02*
X64191940Y-55822315D01*
X70104000Y-39878000D02*
X64191940Y-45790060D01*
X84201000Y-39878000D02*
X70104000Y-39878000D01*
X85852000Y-41529000D02*
X84201000Y-39878000D01*
X95321000Y-41529000D02*
X85852000Y-41529000D01*
X97226000Y-39624000D02*
X95321000Y-41529000D01*
X48746000Y-26924000D02*
X49080000Y-27258000D01*
X45974000Y-26924000D02*
X48746000Y-26924000D01*
X43894000Y-31036000D02*
X45212000Y-29718000D01*
X45212000Y-29718000D02*
X45212000Y-27686000D01*
X43918000Y-38608000D02*
X43894000Y-38584000D01*
X49080000Y-27258000D02*
X49080000Y-28508000D01*
X43894000Y-38584000D02*
X43894000Y-31036000D01*
X43918000Y-42196000D02*
X43918000Y-38608000D01*
X45212000Y-27686000D02*
X45974000Y-26924000D01*
X44394000Y-42672000D02*
X43918000Y-42196000D01*
X44704000Y-68580000D02*
X45466000Y-67818000D01*
X42084000Y-68580000D02*
X44704000Y-68580000D01*
X37650000Y-33588000D02*
X37650000Y-33838000D01*
X36962000Y-68702000D02*
X37084000Y-68580000D01*
X37084000Y-68442000D02*
X37084000Y-68580000D01*
X37084000Y-68580000D02*
X36449000Y-67945000D01*
X36449000Y-67945000D02*
X34544000Y-67945000D01*
X37906000Y-33588000D02*
X37650000Y-33588000D01*
X37719000Y-41783000D02*
X37719000Y-33775000D01*
X28702000Y-50800000D02*
X37719000Y-41783000D01*
X28702000Y-57404000D02*
X28702000Y-50800000D01*
X37719000Y-33775000D02*
X37906000Y-33588000D01*
X34544000Y-63246000D02*
X28702000Y-57404000D01*
X34544000Y-67945000D02*
X34544000Y-63246000D01*
D33*
X58726000Y-32580000D02*
X61976000Y-32580000D01*
X58420000Y-32274000D02*
X58726000Y-32580000D01*
D32*
X61468000Y-68580000D02*
X62738000Y-69850000D01*
X62743000Y-69845000D02*
X64008000Y-69845000D01*
X62738000Y-69850000D02*
X62743000Y-69845000D01*
X64008000Y-69845000D02*
X65273016Y-69845000D01*
X65273016Y-69845000D02*
X65278016Y-69850000D01*
X65024000Y-56584315D02*
X65024000Y-57150000D01*
X65024000Y-46101000D02*
X65024000Y-56584315D01*
X70485000Y-40640000D02*
X65024000Y-46101000D01*
X85598000Y-42291000D02*
X83947000Y-40640000D01*
X97917000Y-42291000D02*
X85598000Y-42291000D01*
X83947000Y-40640000D02*
X70485000Y-40640000D01*
X99650000Y-40558000D02*
X97917000Y-42291000D01*
X99650000Y-33528000D02*
X99650000Y-40558000D01*
X54690000Y-70358000D02*
X56468000Y-68580000D01*
X51943000Y-70358000D02*
X54690000Y-70358000D01*
X50546000Y-68961000D02*
X51943000Y-70358000D01*
X50546000Y-67818000D02*
X50546000Y-68961000D01*
X102918000Y-35385000D02*
X102918000Y-36576000D01*
X103460000Y-34843000D02*
X102918000Y-35385000D01*
X103460000Y-28448000D02*
X103460000Y-34843000D01*
X102918000Y-38584000D02*
X102894000Y-38608000D01*
X102918000Y-36576000D02*
X102918000Y-38584000D01*
X102894000Y-38608000D02*
X102894000Y-40640000D01*
X102894000Y-42648000D02*
X102870000Y-42672000D01*
X102894000Y-40640000D02*
X102894000Y-42648000D01*
X105918000Y-31050795D02*
X105918000Y-36449000D01*
X105918000Y-36449000D02*
X105791000Y-36576000D01*
X107188000Y-29780795D02*
X105918000Y-31050795D01*
X107188000Y-27432000D02*
X107188000Y-29780795D01*
X107950000Y-26670000D02*
X107188000Y-27432000D01*
X110552000Y-26670000D02*
X107950000Y-26670000D01*
X111080000Y-27198000D02*
X110552000Y-26670000D01*
X111080000Y-28448000D02*
X111080000Y-27198000D01*
X105918000Y-38584000D02*
X105894000Y-38608000D01*
X105918000Y-36576000D02*
X105918000Y-38584000D01*
X105894000Y-38608000D02*
X105894000Y-40640000D01*
X105894000Y-42196000D02*
X106370000Y-42672000D01*
X105894000Y-40640000D02*
X105894000Y-42196000D01*
D33*
X91134000Y-32580000D02*
X91440000Y-32274000D01*
X87884000Y-32580000D02*
X91134000Y-32580000D01*
D32*
X46540000Y-28508000D02*
X46540000Y-30168000D01*
X45270000Y-31438000D02*
X45270000Y-33588000D01*
X107270000Y-33528000D02*
X107270000Y-31922000D01*
X108540000Y-30652000D02*
X108540000Y-28448000D01*
X107270000Y-31922000D02*
X108540000Y-30652000D01*
X46482000Y-30226000D02*
X45270000Y-31438000D01*
X46540000Y-30168000D02*
X46482000Y-30226000D01*
X82180000Y-48088000D02*
X81280000Y-48088000D01*
X82804000Y-47464000D02*
X82180000Y-48088000D01*
X82804000Y-44738000D02*
X82804000Y-47464000D01*
X82344000Y-44278000D02*
X82804000Y-44738000D01*
X81280000Y-44278000D02*
X82344000Y-44278000D01*
X79994000Y-42291000D02*
X81280000Y-42291000D01*
X82838000Y-44704000D02*
X82804000Y-44738000D01*
X107188000Y-44704000D02*
X82838000Y-44704000D01*
X108331000Y-41529000D02*
X108331000Y-43561000D01*
X107270000Y-40468000D02*
X108331000Y-41529000D01*
X108331000Y-43561000D02*
X107188000Y-44704000D01*
X107270000Y-33528000D02*
X107270000Y-40468000D01*
X81280000Y-44278000D02*
X81280000Y-42290998D01*
X80714315Y-39116000D02*
X81280000Y-39116000D01*
X71628000Y-39116000D02*
X80714315Y-39116000D01*
X62738000Y-30226000D02*
X71628000Y-39116000D01*
X46482000Y-30226000D02*
X62738000Y-30226000D01*
D33*
X42730000Y-33588000D02*
X42730000Y-33838000D01*
D32*
X70104000Y-46960000D02*
X70104000Y-46260000D01*
X70104000Y-48929000D02*
X70104000Y-46960000D01*
X71104000Y-49929000D02*
X70104000Y-48929000D01*
X71104000Y-50054000D02*
X71104000Y-49929000D01*
X71104000Y-50054000D02*
X72390000Y-50054000D01*
D34*
X50350000Y-36772000D02*
X50350000Y-33588000D01*
X49530000Y-37592000D02*
X50350000Y-36772000D01*
D32*
X49698000Y-36772000D02*
X50350000Y-36772000D01*
X49502000Y-36576000D02*
X49698000Y-36772000D01*
D33*
X48752000Y-36576000D02*
X49502000Y-36576000D01*
D35*
X99695000Y-54737000D02*
X101219000Y-54737000D01*
X101219000Y-54737000D02*
X103759000Y-54737000D01*
X103759000Y-54737000D02*
X111760000Y-46736000D01*
D34*
X112350000Y-38018000D02*
X112350000Y-33528000D01*
X111760000Y-38608000D02*
X112350000Y-38018000D01*
D35*
X111760000Y-46736000D02*
X111760000Y-37338000D01*
X49784000Y-46990000D02*
X49784000Y-37338000D01*
X42037000Y-54737000D02*
X49784000Y-46990000D01*
X38735000Y-54737000D02*
X42037000Y-54737000D01*
X99263000Y-54737000D02*
X94310000Y-59690000D01*
X99695000Y-54737000D02*
X99263000Y-54737000D01*
X94310000Y-59690000D02*
X84836000Y-59690000D01*
D32*
X73320000Y-55118000D02*
X73320000Y-55286000D01*
D35*
X38735000Y-60452000D02*
X42037000Y-63754000D01*
X68294000Y-63754000D02*
X70000000Y-65460000D01*
X38735000Y-54737000D02*
X38735000Y-60452000D01*
X42037000Y-63754000D02*
X68294000Y-63754000D01*
D32*
X81026000Y-55118000D02*
X85090000Y-59182000D01*
X73320000Y-55118000D02*
X81026000Y-55118000D01*
X99695000Y-54737000D02*
X99695000Y-53287000D01*
X99695000Y-53287000D02*
X96446000Y-50038000D01*
X96446000Y-50038000D02*
X86671685Y-50038000D01*
X86671685Y-50038000D02*
X86106000Y-50038000D01*
X71104000Y-48210000D02*
X71054000Y-48260000D01*
X71054000Y-44516000D02*
X71104000Y-44466000D01*
X71054000Y-48260000D02*
X71054000Y-44516000D01*
X78532000Y-44278000D02*
X79232000Y-44278000D01*
X77958000Y-43704000D02*
X78532000Y-44278000D01*
X73268000Y-43704000D02*
X77958000Y-43704000D01*
X72898000Y-44074000D02*
X73268000Y-43704000D01*
X72898000Y-44974000D02*
X72898000Y-44074000D01*
X71898000Y-44466000D02*
X71104000Y-44466000D01*
X72390000Y-44958000D02*
X71898000Y-44466000D01*
X72882000Y-44958000D02*
X72898000Y-44974000D01*
X72390000Y-44958000D02*
X72882000Y-44958000D01*
X71942000Y-48260000D02*
X71054000Y-48260000D01*
X75410000Y-51728000D02*
X71942000Y-48260000D01*
X75410000Y-52578000D02*
X75410000Y-51728000D01*
D36*
X52890000Y-33588000D02*
X52890000Y-33814000D01*
D35*
X81249999Y-64210001D02*
X80000000Y-65460000D01*
X81706000Y-63754000D02*
X81249999Y-64210001D01*
X102228000Y-63754000D02*
X81706000Y-63754000D01*
X111245000Y-54737000D02*
X102228000Y-63754000D01*
D34*
X52890000Y-38666000D02*
X53001000Y-38777000D01*
X52890000Y-33588000D02*
X52890000Y-38666000D01*
D35*
X50285000Y-54109000D02*
X53340000Y-51054000D01*
X50285000Y-54737000D02*
X50285000Y-54109000D01*
X115570000Y-49396000D02*
X115570000Y-39116000D01*
X115570000Y-50412000D02*
X115570000Y-49396000D01*
X111245000Y-54737000D02*
X115570000Y-50412000D01*
D33*
X114890000Y-38436000D02*
X115570000Y-39116000D01*
D34*
X115062000Y-33700000D02*
X115062000Y-38878000D01*
X114890000Y-33528000D02*
X115062000Y-33700000D01*
D35*
X80000000Y-64252000D02*
X80000000Y-65460000D01*
X75438000Y-59690000D02*
X80000000Y-64252000D01*
X67818000Y-59690000D02*
X75438000Y-59690000D01*
D32*
X67630000Y-52958002D02*
X67733999Y-53062001D01*
X67630000Y-52578000D02*
X67630000Y-52958002D01*
D33*
X114940000Y-34560000D02*
X117348000Y-34560000D01*
X114890000Y-34610000D02*
X114940000Y-34560000D01*
X55324000Y-34512000D02*
X55372000Y-34560000D01*
X53001000Y-34512000D02*
X55324000Y-34512000D01*
D32*
X66548000Y-53660000D02*
X67630000Y-52578000D01*
X66548000Y-56134000D02*
X66548000Y-53660000D01*
X67818000Y-57404000D02*
X66548000Y-56134000D01*
X67818000Y-59690000D02*
X67818000Y-57404000D01*
D35*
X55238000Y-59690000D02*
X67818000Y-59690000D01*
X50285000Y-54737000D02*
X55238000Y-59690000D01*
X53340000Y-51054000D02*
X53340000Y-38862000D01*
D32*
X102362000Y-69368000D02*
X102362000Y-68768000D01*
X102816000Y-69822000D02*
X102362000Y-69368000D01*
X104648000Y-69822000D02*
X102816000Y-69822000D01*
X105748000Y-66322000D02*
X104648000Y-66322000D01*
X113058000Y-66322000D02*
X105748000Y-66322000D01*
X114300000Y-67564000D02*
X113058000Y-66322000D01*
X114300000Y-68199000D02*
X114300000Y-67564000D01*
X110510510Y-68199000D02*
X107335510Y-71374000D01*
X111760000Y-68199000D02*
X110510510Y-68199000D01*
X99568000Y-70392000D02*
X99568000Y-69342000D01*
X100550000Y-71374000D02*
X99568000Y-70392000D01*
X107335510Y-71374000D02*
X100550000Y-71374000D01*
X81280000Y-45578000D02*
X81280000Y-46178000D01*
X80930000Y-45228000D02*
X81280000Y-45578000D01*
X77232000Y-45228000D02*
X80930000Y-45228000D01*
X74798000Y-44974000D02*
X74798000Y-47006000D01*
X74798000Y-47906000D02*
X74980000Y-48088000D01*
X74798000Y-47006000D02*
X74798000Y-47906000D01*
X78532000Y-46178000D02*
X79232000Y-46178000D01*
X78492000Y-46178000D02*
X78532000Y-46178000D01*
X77232000Y-47438000D02*
X78492000Y-46178000D01*
X77232000Y-48088000D02*
X77232000Y-47438000D01*
X74980000Y-48088000D02*
X77232000Y-48088000D01*
X79232000Y-49688000D02*
X79232000Y-49038000D01*
X79532000Y-49988000D02*
X79232000Y-49688000D01*
X81280000Y-49988000D02*
X79532000Y-49988000D01*
X33966000Y-30922000D02*
X36380000Y-28508000D01*
X33528000Y-30922000D02*
X33966000Y-30922000D01*
X33528000Y-31308000D02*
X32639000Y-32197000D01*
X33528000Y-30922000D02*
X33528000Y-31308000D01*
X94615000Y-30795000D02*
X94615000Y-31943000D01*
X98380000Y-29698000D02*
X98380000Y-28448000D01*
X97283000Y-30795000D02*
X98380000Y-29698000D01*
X94615000Y-30795000D02*
X97283000Y-30795000D01*
X72898000Y-47006000D02*
X72898000Y-47906000D01*
X72898000Y-47906000D02*
X74036998Y-49044998D01*
X74036998Y-49044998D02*
X77747002Y-49044998D01*
X84690001Y-55987997D02*
X85090000Y-56387996D01*
X81026000Y-52578000D02*
X81280000Y-52324000D01*
X81026000Y-52324000D02*
X84690001Y-55987997D01*
X80960000Y-52578000D02*
X81026000Y-52578000D01*
X77747002Y-49044998D02*
X81026000Y-52324000D01*
X99634000Y-66868000D02*
X99568000Y-66802000D01*
X102362000Y-66868000D02*
X99634000Y-66868000D01*
X94742000Y-28768000D02*
X94742000Y-26247990D01*
X94615000Y-28895000D02*
X94742000Y-28768000D01*
X33528000Y-27432000D02*
X33528000Y-29022000D01*
X34798000Y-26162000D02*
X33528000Y-27432000D01*
X50524000Y-26162000D02*
X34798000Y-26162000D01*
X51620000Y-27258000D02*
X50524000Y-26162000D01*
X51620000Y-28508000D02*
X51620000Y-27258000D01*
X40894000Y-38584000D02*
X40918000Y-38608000D01*
X40894000Y-36576000D02*
X40894000Y-38584000D01*
X40918000Y-38608000D02*
X40918000Y-40640000D01*
X40918000Y-42648000D02*
X40894000Y-42672000D01*
X40918000Y-40640000D02*
X40918000Y-42648000D01*
X40894000Y-35526000D02*
X40894000Y-36576000D01*
X41460000Y-34960000D02*
X40894000Y-35526000D01*
X41460000Y-28508000D02*
X41460000Y-34960000D01*
X32639000Y-38735000D02*
X31623000Y-39751000D01*
X32639000Y-34097000D02*
X32639000Y-38735000D01*
X94615000Y-38735000D02*
X93726000Y-39624000D01*
X94615000Y-33970000D02*
X94615000Y-38735000D01*
X79060000Y-52578000D02*
X77610000Y-52578000D01*
X71154000Y-52578000D02*
X69784000Y-52578000D01*
X71120000Y-55118000D02*
X69530000Y-55118000D01*
M02*
