G04 #@! TF.GenerationSoftware,KiCad,Pcbnew,5.1.5+dfsg1-2build2*
G04 #@! TF.CreationDate,2021-11-24T22:49:49+10:30*
G04 #@! TF.ProjectId,tda7293,74646137-3239-4332-9e6b-696361645f70,rev?*
G04 #@! TF.SameCoordinates,Original*
G04 #@! TF.FileFunction,Copper,L1,Top*
G04 #@! TF.FilePolarity,Positive*
%FSLAX46Y46*%
G04 Gerber Fmt 4.6, Leading zero omitted, Abs format (unit mm)*
G04 Created by KiCad (PCBNEW 5.1.5+dfsg1-2build2) date 2021-11-24 22:49:49*
%MOMM*%
%LPD*%
G04 APERTURE LIST*
%ADD10R,0.700000X1.300000*%
%ADD11R,1.700000X1.300000*%
%ADD12R,1.000000X1.250000*%
%ADD13R,1.200000X1.200000*%
%ADD14R,1.000000X1.600000*%
%ADD15R,1.600000X1.600000*%
%ADD16C,1.600000*%
%ADD17R,1.998980X1.998980*%
%ADD18O,1.998980X1.998980*%
%ADD19C,1.000000*%
%ADD20R,1.250000X1.000000*%
%ADD21C,2.400000*%
%ADD22R,2.400000X2.400000*%
%ADD23C,2.500000*%
%ADD24R,2.500000X2.500000*%
%ADD25R,0.900000X0.800000*%
%ADD26R,1.300000X0.700000*%
%ADD27O,2.400000X2.400000*%
%ADD28O,1.500000X2.000000*%
%ADD29O,1.600000X1.600000*%
%ADD30R,0.800000X0.900000*%
%ADD31C,0.800000*%
%ADD32C,0.250000*%
%ADD33C,1.000000*%
%ADD34C,2.000000*%
%ADD35C,3.000000*%
%ADD36C,0.750000*%
G04 APERTURE END LIST*
D10*
X81976000Y-40640000D03*
X80076000Y-40640000D03*
D11*
X83566000Y-48232000D03*
X83566000Y-44732000D03*
D12*
X75200000Y-40640000D03*
X77200000Y-40640000D03*
D10*
X54422000Y-38608000D03*
X56322000Y-38608000D03*
X46802000Y-38354000D03*
X48702000Y-38354000D03*
X69530000Y-55880000D03*
X67630000Y-55880000D03*
D13*
X73320000Y-55880000D03*
X71120000Y-55880000D03*
D10*
X69530000Y-53340000D03*
X67630000Y-53340000D03*
X79248000Y-53340000D03*
X81148000Y-53340000D03*
D13*
X73354000Y-53340000D03*
X71154000Y-53340000D03*
X75410000Y-53340000D03*
X77610000Y-53340000D03*
D14*
X105894000Y-40894000D03*
X102894000Y-40894000D03*
X105894000Y-38735000D03*
X102894000Y-38735000D03*
X105894000Y-36576000D03*
X102894000Y-36576000D03*
X43918000Y-40894000D03*
X40918000Y-40894000D03*
X43918000Y-38735000D03*
X40918000Y-38735000D03*
X43918000Y-36576000D03*
X40918000Y-36576000D03*
D15*
X102870000Y-42799000D03*
D16*
X106370000Y-42799000D03*
D15*
X94488000Y-39624000D03*
D16*
X97988000Y-39624000D03*
D15*
X40894000Y-42672000D03*
D16*
X44394000Y-42672000D03*
D15*
X32512000Y-39751000D03*
D16*
X36012000Y-39751000D03*
D17*
X111760000Y-67818000D03*
D18*
X114300000Y-67818000D03*
X50546000Y-67818000D03*
X48006000Y-67818000D03*
D17*
X45466000Y-67818000D03*
D18*
X53086000Y-67818000D03*
D19*
X29000000Y-64000000D03*
X123000000Y-27000000D03*
X27000000Y-27000000D03*
X121000000Y-64000000D03*
D16*
X27686000Y-43862000D03*
X27686000Y-38862000D03*
D20*
X58420000Y-32274000D03*
X58420000Y-34274000D03*
D16*
X90424000Y-41148000D03*
X85424000Y-41148000D03*
D20*
X91440000Y-34274000D03*
X91440000Y-32274000D03*
D12*
X77200000Y-42545000D03*
X75200000Y-42545000D03*
D21*
X31235000Y-54737000D03*
D22*
X38735000Y-54737000D03*
D12*
X46752000Y-36322000D03*
X48752000Y-36322000D03*
D22*
X99695000Y-54737000D03*
D21*
X92195000Y-54737000D03*
D12*
X110728000Y-36322000D03*
X108728000Y-36322000D03*
X71104000Y-50054000D03*
X69104000Y-50054000D03*
X69104000Y-44466000D03*
X71104000Y-44466000D03*
D22*
X57785000Y-54737000D03*
D21*
X50285000Y-54737000D03*
D20*
X55372000Y-34560000D03*
X55372000Y-36560000D03*
D21*
X111245000Y-54737000D03*
D22*
X118745000Y-54737000D03*
D20*
X117348000Y-34560000D03*
X117348000Y-36560000D03*
D11*
X104648000Y-69822000D03*
X104648000Y-66322000D03*
D23*
X82380000Y-31000000D03*
X77380000Y-31000000D03*
D24*
X67380000Y-31000000D03*
D23*
X72380000Y-31000000D03*
X80000000Y-65460000D03*
D24*
X70000000Y-65460000D03*
D23*
X75000000Y-65460000D03*
D25*
X77232000Y-45228000D03*
X79232000Y-44278000D03*
X79232000Y-46178000D03*
X77232000Y-48088000D03*
X77232000Y-49988000D03*
X79232000Y-49038000D03*
D26*
X32512000Y-30856000D03*
X32512000Y-28956000D03*
X32512000Y-34097000D03*
X32512000Y-32197000D03*
D10*
X27244000Y-36322000D03*
X29144000Y-36322000D03*
D21*
X61976000Y-27940000D03*
D27*
X61976000Y-33020000D03*
D26*
X94615000Y-28895000D03*
X94615000Y-30795000D03*
X94615000Y-32070000D03*
X94615000Y-33970000D03*
D10*
X74798000Y-44974000D03*
X72898000Y-44974000D03*
X87950000Y-37846000D03*
X89850000Y-37846000D03*
D27*
X87884000Y-33020000D03*
D21*
X87884000Y-27940000D03*
D10*
X80076000Y-42545000D03*
X81976000Y-42545000D03*
D26*
X81280000Y-48072000D03*
X81280000Y-49972000D03*
D10*
X72898000Y-47006000D03*
X74798000Y-47006000D03*
D26*
X102362000Y-66868000D03*
X102362000Y-68768000D03*
D28*
X52890000Y-33588000D03*
X51620000Y-28508000D03*
X50350000Y-33588000D03*
X49080000Y-28508000D03*
X47810000Y-33588000D03*
X46540000Y-28508000D03*
X45270000Y-33588000D03*
X44000000Y-28508000D03*
X42730000Y-33588000D03*
X41460000Y-28508000D03*
X40190000Y-33588000D03*
X38920000Y-28508000D03*
X37650000Y-33588000D03*
X36380000Y-28508000D03*
X35110000Y-33588000D03*
X114890000Y-33528000D03*
X113620000Y-28448000D03*
X112350000Y-33528000D03*
X111080000Y-28448000D03*
X109810000Y-33528000D03*
X108540000Y-28448000D03*
X107270000Y-33528000D03*
X106000000Y-28448000D03*
X104730000Y-33528000D03*
X103460000Y-28448000D03*
X102190000Y-33528000D03*
X100920000Y-28448000D03*
X99650000Y-33528000D03*
X98380000Y-28448000D03*
X97110000Y-33528000D03*
D29*
X91948000Y-69342000D03*
X99568000Y-66802000D03*
X91948000Y-66802000D03*
D15*
X99568000Y-69342000D03*
D30*
X70104000Y-46260000D03*
X71054000Y-48260000D03*
X69154000Y-48260000D03*
D19*
X58420000Y-36068000D03*
X118855996Y-36560000D03*
X56642000Y-36576000D03*
D31*
X74422000Y-54609994D03*
X64191940Y-56388000D03*
D19*
X108712000Y-37592000D03*
D31*
X91440000Y-36068000D03*
X63246000Y-66548000D03*
D19*
X45466002Y-36322000D03*
D31*
X77216000Y-51307958D03*
X65024000Y-67310000D03*
X65024000Y-57404000D03*
X84328000Y-60452000D03*
X85852000Y-60452000D03*
X72390000Y-50054000D03*
X85090000Y-59182000D03*
X78740000Y-40640000D03*
X78740000Y-34544000D03*
X88646000Y-45720000D03*
X86614002Y-49276000D03*
X85344000Y-56641998D03*
X77470002Y-35306000D03*
X78740000Y-42544998D03*
X81280000Y-46228000D03*
D32*
X69104000Y-50054000D02*
X69104000Y-49816000D01*
X69104000Y-48310000D02*
X69154000Y-48260000D01*
X69104000Y-50054000D02*
X69104000Y-48310000D01*
D33*
X58436000Y-34544000D02*
X58436000Y-36052000D01*
D32*
X78374000Y-68834000D02*
X75000000Y-65460000D01*
X88784630Y-68834000D02*
X78374000Y-68834000D01*
X90816630Y-66802000D02*
X88784630Y-68834000D01*
X91948000Y-66802000D02*
X90816630Y-66802000D01*
X69154000Y-44516000D02*
X69104000Y-44466000D01*
X69154000Y-48260000D02*
X69154000Y-44516000D01*
X119110000Y-36560000D02*
X118855996Y-36560000D01*
D33*
X55388000Y-36576000D02*
X56642000Y-36576000D01*
X55372000Y-36560000D02*
X55388000Y-36576000D01*
X117348000Y-36560000D02*
X118855996Y-36560000D01*
D32*
X74421994Y-54610000D02*
X74422000Y-54609994D01*
X68000000Y-54610000D02*
X74421994Y-54610000D01*
X67630000Y-54980000D02*
X68000000Y-54610000D01*
X67630000Y-55880000D02*
X67630000Y-54980000D01*
X73354000Y-54558000D02*
X73406000Y-54610000D01*
X73354000Y-53340000D02*
X73354000Y-54558000D01*
D33*
X108712000Y-36884894D02*
X108712000Y-37592000D01*
X108728000Y-36322000D02*
X108712000Y-36338000D01*
X108712000Y-36338000D02*
X108712000Y-36884894D01*
D32*
X56322000Y-36896000D02*
X56642000Y-36576000D01*
X56322000Y-38608000D02*
X56322000Y-36896000D01*
X46802000Y-36372000D02*
X46752000Y-36322000D01*
X46802000Y-38354000D02*
X46802000Y-36372000D01*
X69104000Y-44466000D02*
X69104000Y-43720000D01*
X91456000Y-36052000D02*
X91440000Y-36068000D01*
D33*
X91456000Y-34290000D02*
X91456000Y-36052000D01*
X91440000Y-34274000D02*
X91456000Y-34290000D01*
D32*
X75200000Y-42545000D02*
X75200000Y-40640000D01*
X70279000Y-42545000D02*
X75200000Y-42545000D01*
X69104000Y-43720000D02*
X70279000Y-42545000D01*
X61976000Y-67818000D02*
X63246000Y-66548000D01*
X53086000Y-67818000D02*
X61976000Y-67818000D01*
X96266000Y-41148000D02*
X97790000Y-39624000D01*
X97790000Y-39624000D02*
X97988000Y-39624000D01*
X92964000Y-41148000D02*
X96266000Y-41148000D01*
X92456000Y-40640000D02*
X92964000Y-41148000D01*
X92456000Y-39852000D02*
X92456000Y-40640000D01*
X90450000Y-37846000D02*
X92456000Y-39852000D01*
X48006000Y-69231492D02*
X48006000Y-67818000D01*
X40386000Y-69342000D02*
X47895492Y-69342000D01*
X26416000Y-55372000D02*
X40386000Y-69342000D01*
X26416000Y-35306000D02*
X26416000Y-55372000D01*
X26670000Y-35052000D02*
X26416000Y-35306000D01*
X28702000Y-35052000D02*
X26670000Y-35052000D01*
X29144000Y-35494000D02*
X28702000Y-35052000D01*
X47895492Y-69342000D02*
X48006000Y-69231492D01*
X29144000Y-36322000D02*
X29144000Y-35494000D01*
X89850000Y-37846000D02*
X90424000Y-37846000D01*
X87376000Y-36576000D02*
X89226000Y-36576000D01*
X89850000Y-37200000D02*
X89850000Y-37846000D01*
X86106000Y-37846000D02*
X87376000Y-36576000D01*
X89226000Y-36576000D02*
X89850000Y-37200000D01*
X71882000Y-37846000D02*
X86106000Y-37846000D01*
X64191940Y-45536060D02*
X71882000Y-37846000D01*
X64191940Y-56388000D02*
X64191940Y-45536060D01*
D33*
X46736000Y-36322000D02*
X45466002Y-36322000D01*
D32*
X73354000Y-53288000D02*
X73354000Y-53340000D01*
X71882000Y-51816000D02*
X73354000Y-53288000D01*
X69991000Y-51816000D02*
X71882000Y-51816000D01*
X69104000Y-50929000D02*
X69991000Y-51816000D01*
X69104000Y-50054000D02*
X69104000Y-50929000D01*
X77232000Y-51291958D02*
X77216000Y-51307958D01*
X77232000Y-49988000D02*
X77232000Y-51291958D01*
X29144000Y-39304000D02*
X29144000Y-36322000D01*
X31242000Y-41402000D02*
X29144000Y-39304000D01*
X34361000Y-41402000D02*
X31242000Y-41402000D01*
X36012000Y-39751000D02*
X34361000Y-41402000D01*
X27686000Y-55626000D02*
X27686000Y-43862000D01*
X39878000Y-67818000D02*
X27686000Y-55626000D01*
X45466000Y-67818000D02*
X39878000Y-67818000D01*
X37650000Y-33588000D02*
X37650000Y-33838000D01*
X37906000Y-33588000D02*
X37650000Y-33588000D01*
X37719000Y-33775000D02*
X37906000Y-33588000D01*
X27244000Y-38420000D02*
X27686000Y-38862000D01*
X27244000Y-36322000D02*
X27244000Y-38420000D01*
X37650000Y-41090000D02*
X37650000Y-33588000D01*
X36576000Y-42164000D02*
X37650000Y-41090000D01*
X30988000Y-42164000D02*
X36576000Y-42164000D01*
X27686000Y-38862000D02*
X30988000Y-42164000D01*
D33*
X61214000Y-32258000D02*
X61976000Y-33020000D01*
X58436000Y-32258000D02*
X61214000Y-32258000D01*
X58420000Y-32274000D02*
X58436000Y-32258000D01*
D32*
X90297000Y-41148000D02*
X90424000Y-41148000D01*
X87950000Y-38801000D02*
X90297000Y-41148000D01*
X87950000Y-37846000D02*
X87950000Y-38801000D01*
X99650000Y-40050000D02*
X99650000Y-33528000D01*
X98044000Y-41656000D02*
X99650000Y-40050000D01*
X90932000Y-41656000D02*
X98044000Y-41656000D01*
X90424000Y-41148000D02*
X90932000Y-41656000D01*
X52070000Y-69342000D02*
X62992000Y-69342000D01*
X62992000Y-69342000D02*
X65024000Y-67310000D01*
X50546000Y-67818000D02*
X52070000Y-69342000D01*
X84836000Y-38608000D02*
X85424000Y-39196000D01*
X72136000Y-38608000D02*
X84836000Y-38608000D01*
X85424000Y-39196000D02*
X85424000Y-41148000D01*
X65024000Y-45720000D02*
X72136000Y-38608000D01*
X65024000Y-57404000D02*
X65024000Y-45720000D01*
X102918000Y-35385000D02*
X102918000Y-36576000D01*
X103460000Y-34843000D02*
X102918000Y-35385000D01*
X103460000Y-28448000D02*
X103460000Y-34843000D01*
X102918000Y-38584000D02*
X102894000Y-38608000D01*
X102918000Y-36576000D02*
X102918000Y-38584000D01*
X102894000Y-38608000D02*
X102894000Y-40640000D01*
X102894000Y-42648000D02*
X102870000Y-42672000D01*
X102894000Y-40640000D02*
X102894000Y-42648000D01*
X105918000Y-38584000D02*
X105894000Y-38608000D01*
X105918000Y-36576000D02*
X105918000Y-38584000D01*
X105894000Y-38608000D02*
X105894000Y-40640000D01*
X105894000Y-42196000D02*
X106370000Y-42672000D01*
X105894000Y-40640000D02*
X105894000Y-42196000D01*
D33*
X91424000Y-32258000D02*
X91440000Y-32274000D01*
X88646000Y-32258000D02*
X91424000Y-32258000D01*
X87884000Y-33020000D02*
X88646000Y-32258000D01*
X42730000Y-33588000D02*
X42730000Y-33838000D01*
D32*
X70104000Y-46960000D02*
X70104000Y-46260000D01*
X70104000Y-48929000D02*
X70104000Y-46960000D01*
X71104000Y-49929000D02*
X70104000Y-48929000D01*
X71104000Y-50054000D02*
X71104000Y-49929000D01*
X71104000Y-50054000D02*
X72390000Y-50054000D01*
D34*
X50350000Y-36772000D02*
X50350000Y-33588000D01*
X49530000Y-37592000D02*
X50350000Y-36772000D01*
D32*
X49698000Y-36772000D02*
X50350000Y-36772000D01*
X49502000Y-36576000D02*
X49698000Y-36772000D01*
D33*
X48752000Y-36576000D02*
X49502000Y-36576000D01*
D35*
X99695000Y-54737000D02*
X101219000Y-54737000D01*
X101219000Y-54737000D02*
X103759000Y-54737000D01*
X103759000Y-54737000D02*
X111760000Y-46736000D01*
D34*
X112350000Y-38018000D02*
X112350000Y-33528000D01*
X111760000Y-38608000D02*
X112350000Y-38018000D01*
D35*
X111760000Y-46736000D02*
X111760000Y-37338000D01*
X49784000Y-46990000D02*
X49784000Y-37338000D01*
X42037000Y-54737000D02*
X49784000Y-46990000D01*
X38735000Y-54737000D02*
X42037000Y-54737000D01*
X99263000Y-54737000D02*
X94310000Y-59690000D01*
X99695000Y-54737000D02*
X99263000Y-54737000D01*
X94310000Y-59690000D02*
X84836000Y-59690000D01*
D32*
X73320000Y-55880000D02*
X73320000Y-56048000D01*
D35*
X38735000Y-60452000D02*
X42037000Y-63754000D01*
X68294000Y-63754000D02*
X70000000Y-65460000D01*
X38735000Y-54737000D02*
X38735000Y-60452000D01*
X42037000Y-63754000D02*
X68294000Y-63754000D01*
D32*
X73320000Y-55880000D02*
X81026000Y-55880000D01*
X71104000Y-48210000D02*
X71054000Y-48260000D01*
X71054000Y-44516000D02*
X71104000Y-44466000D01*
X71054000Y-48260000D02*
X71054000Y-44516000D01*
X78532000Y-44278000D02*
X79232000Y-44278000D01*
X77958000Y-43704000D02*
X78532000Y-44278000D01*
X73268000Y-43704000D02*
X77958000Y-43704000D01*
X72898000Y-44074000D02*
X73268000Y-43704000D01*
X72898000Y-44974000D02*
X72898000Y-44074000D01*
X71898000Y-44466000D02*
X71104000Y-44466000D01*
X72390000Y-44958000D02*
X71898000Y-44466000D01*
X72882000Y-44958000D02*
X72898000Y-44974000D01*
X72390000Y-44958000D02*
X72882000Y-44958000D01*
X71942000Y-48260000D02*
X71054000Y-48260000D01*
X75410000Y-51728000D02*
X71942000Y-48260000D01*
D36*
X52890000Y-33588000D02*
X52890000Y-33814000D01*
D35*
X81249999Y-64210001D02*
X80000000Y-65460000D01*
X81706000Y-63754000D02*
X81249999Y-64210001D01*
X102228000Y-63754000D02*
X81706000Y-63754000D01*
X111245000Y-54737000D02*
X102228000Y-63754000D01*
D34*
X52890000Y-38666000D02*
X53001000Y-38777000D01*
X52890000Y-33588000D02*
X52890000Y-38666000D01*
D35*
X50285000Y-54109000D02*
X53340000Y-51054000D01*
X50285000Y-54737000D02*
X50285000Y-54109000D01*
X115570000Y-49396000D02*
X115570000Y-39116000D01*
X115570000Y-50412000D02*
X115570000Y-49396000D01*
X111245000Y-54737000D02*
X115570000Y-50412000D01*
D33*
X114890000Y-38436000D02*
X115570000Y-39116000D01*
D34*
X115062000Y-33700000D02*
X115062000Y-38878000D01*
X114890000Y-33528000D02*
X115062000Y-33700000D01*
D35*
X80000000Y-64252000D02*
X80000000Y-65460000D01*
X75438000Y-59690000D02*
X80000000Y-64252000D01*
X67818000Y-59690000D02*
X75438000Y-59690000D01*
D32*
X67630000Y-53720002D02*
X67733999Y-53824001D01*
X67630000Y-53340000D02*
X67630000Y-53720002D01*
D33*
X114940000Y-34560000D02*
X117348000Y-34560000D01*
X114890000Y-34610000D02*
X114940000Y-34560000D01*
X55324000Y-34512000D02*
X55372000Y-34560000D01*
X53001000Y-34512000D02*
X55324000Y-34512000D01*
D35*
X55238000Y-59690000D02*
X67818000Y-59690000D01*
X50285000Y-54737000D02*
X55238000Y-59690000D01*
X53340000Y-51054000D02*
X53340000Y-38862000D01*
D32*
X102362000Y-69368000D02*
X102362000Y-68768000D01*
X102816000Y-69822000D02*
X102362000Y-69368000D01*
X104648000Y-69822000D02*
X102816000Y-69822000D01*
X74798000Y-44974000D02*
X74798000Y-47006000D01*
X74798000Y-47906000D02*
X74980000Y-48088000D01*
X74798000Y-47006000D02*
X74798000Y-47906000D01*
X78532000Y-46178000D02*
X79232000Y-46178000D01*
X78492000Y-46178000D02*
X78532000Y-46178000D01*
X77232000Y-47438000D02*
X78492000Y-46178000D01*
X77232000Y-48088000D02*
X77232000Y-47438000D01*
X74980000Y-48088000D02*
X77232000Y-48088000D01*
X32512000Y-30856000D02*
X32512000Y-32197000D01*
X33914000Y-30856000D02*
X32512000Y-30856000D01*
X36262000Y-28508000D02*
X33914000Y-30856000D01*
X36380000Y-28508000D02*
X36262000Y-28508000D01*
X94615000Y-30795000D02*
X94615000Y-31943000D01*
X81026000Y-53340000D02*
X81280000Y-53086000D01*
X80960000Y-53340000D02*
X81026000Y-53340000D01*
X99634000Y-66868000D02*
X99568000Y-66802000D01*
X102362000Y-66868000D02*
X99634000Y-66868000D01*
X94615000Y-28895000D02*
X94742000Y-28768000D01*
X40894000Y-38584000D02*
X40918000Y-38608000D01*
X40894000Y-36576000D02*
X40894000Y-38584000D01*
X40918000Y-38608000D02*
X40918000Y-40640000D01*
X40918000Y-42648000D02*
X40894000Y-42672000D01*
X40918000Y-40640000D02*
X40918000Y-42648000D01*
X40894000Y-35526000D02*
X40894000Y-36576000D01*
X41460000Y-34960000D02*
X40894000Y-35526000D01*
X41460000Y-28508000D02*
X41460000Y-34960000D01*
X32893000Y-38735000D02*
X31877000Y-39751000D01*
X32893000Y-34097000D02*
X32893000Y-38735000D01*
X79060000Y-53340000D02*
X77610000Y-53340000D01*
X71154000Y-53340000D02*
X69784000Y-53340000D01*
X71120000Y-55880000D02*
X69530000Y-55880000D01*
X77200000Y-40640000D02*
X80076000Y-40640000D01*
X80076000Y-40640000D02*
X80076000Y-41017002D01*
X46540000Y-29758000D02*
X47008000Y-30226000D01*
X46540000Y-28508000D02*
X46540000Y-29758000D01*
X47008000Y-30226000D02*
X62992000Y-30226000D01*
X62992000Y-30226000D02*
X67310000Y-34544000D01*
X67310000Y-34544000D02*
X78174315Y-34544000D01*
X78174315Y-34544000D02*
X78740000Y-34544000D01*
X82291002Y-39370000D02*
X83566000Y-40644998D01*
X83566000Y-40644998D02*
X83566000Y-44732000D01*
X80446000Y-39370000D02*
X82291002Y-39370000D01*
X80076000Y-39740000D02*
X80446000Y-39370000D01*
X80076000Y-40640000D02*
X80076000Y-39740000D01*
X83594000Y-44704000D02*
X83566000Y-44732000D01*
X108540000Y-28448000D02*
X108540000Y-34486010D01*
X108540000Y-34486010D02*
X107720010Y-35306000D01*
X107720010Y-35306000D02*
X107720010Y-40281600D01*
X107720010Y-40281600D02*
X108781010Y-41342600D01*
X108781010Y-41342600D02*
X108781010Y-43872990D01*
X108781010Y-43872990D02*
X107499990Y-45154010D01*
X107499990Y-45154010D02*
X89211990Y-45154010D01*
X89211990Y-45154010D02*
X89154000Y-45212000D01*
X89154000Y-45212000D02*
X88646000Y-45720000D01*
X84328000Y-59182000D02*
X85090000Y-59182000D01*
X81026000Y-55880000D02*
X84328000Y-59182000D01*
X99695000Y-54737000D02*
X99695000Y-53287000D01*
X99695000Y-53287000D02*
X95684000Y-49276000D01*
X95684000Y-49276000D02*
X87179687Y-49276000D01*
X87179687Y-49276000D02*
X86614002Y-49276000D01*
X75410000Y-53340000D02*
X75410000Y-51728000D01*
X66548000Y-54389000D02*
X67630000Y-53307000D01*
X66548000Y-56642000D02*
X66548000Y-54389000D01*
X67818000Y-57912000D02*
X66548000Y-56642000D01*
X67818000Y-59690000D02*
X67818000Y-57912000D01*
X105748000Y-66322000D02*
X104648000Y-66322000D01*
X106284000Y-65786000D02*
X105748000Y-66322000D01*
X113284000Y-65786000D02*
X106284000Y-65786000D01*
X114300000Y-66802000D02*
X113284000Y-65786000D01*
X114300000Y-68199000D02*
X114300000Y-66802000D01*
X99568000Y-70392000D02*
X99568000Y-69342000D01*
X100550000Y-71374000D02*
X99568000Y-70392000D01*
X107335510Y-71374000D02*
X100550000Y-71374000D01*
X110891510Y-67818000D02*
X107335510Y-71374000D01*
X111760000Y-67818000D02*
X110891510Y-67818000D01*
X80380000Y-49972000D02*
X81280000Y-49972000D01*
X79516000Y-49972000D02*
X80380000Y-49972000D01*
X79232000Y-49688000D02*
X79516000Y-49972000D01*
X79232000Y-49038000D02*
X79232000Y-49688000D01*
X96033000Y-30795000D02*
X98380000Y-28448000D01*
X94615000Y-30795000D02*
X96033000Y-30795000D01*
X74036998Y-49044998D02*
X77746998Y-49044998D01*
X72898000Y-47906000D02*
X74036998Y-49044998D01*
X72898000Y-47006000D02*
X72898000Y-47906000D01*
X77746998Y-49044998D02*
X78232000Y-49530000D01*
X81148000Y-52440000D02*
X81148000Y-53340000D01*
X78238000Y-49530000D02*
X81148000Y-52440000D01*
X78232000Y-49530000D02*
X78238000Y-49530000D01*
X82042002Y-53340000D02*
X85344000Y-56641998D01*
X81148000Y-53340000D02*
X82042002Y-53340000D01*
X96520000Y-26162000D02*
X107950000Y-26162000D01*
X94615000Y-28067000D02*
X96520000Y-26162000D01*
X94615000Y-28895000D02*
X94615000Y-28067000D01*
X107315000Y-26162000D02*
X107950000Y-26162000D01*
X107315000Y-29653795D02*
X107315000Y-26162000D01*
X106045000Y-30923795D02*
X107315000Y-29653795D01*
X106045000Y-36322000D02*
X106045000Y-30923795D01*
X105791000Y-36576000D02*
X106045000Y-36322000D01*
X113620000Y-27198000D02*
X113620000Y-28448000D01*
X112584000Y-26162000D02*
X113620000Y-27198000D01*
X107950000Y-26162000D02*
X112584000Y-26162000D01*
X32512000Y-28194000D02*
X32512000Y-28956000D01*
X34544000Y-26162000D02*
X32512000Y-28194000D01*
X51620000Y-27258000D02*
X50524000Y-26162000D01*
X50524000Y-26162000D02*
X34544000Y-26162000D01*
X51620000Y-28508000D02*
X51620000Y-27258000D01*
X43918000Y-38608000D02*
X44069000Y-38457000D01*
X43918000Y-42196000D02*
X43918000Y-38608000D01*
X44394000Y-42672000D02*
X43918000Y-42196000D01*
X43918000Y-36576000D02*
X43918000Y-38735000D01*
X44005500Y-36488500D02*
X43918000Y-36576000D01*
X44005500Y-30924500D02*
X44005500Y-36488500D01*
X45339000Y-29591000D02*
X44005500Y-30924500D01*
X45339000Y-26289000D02*
X45339000Y-29591000D01*
X45212000Y-26162000D02*
X45339000Y-26289000D01*
X94869000Y-39243000D02*
X94488000Y-39624000D01*
X94869000Y-33970000D02*
X94869000Y-39243000D01*
X81976000Y-40640000D02*
X81976000Y-42545000D01*
X77232000Y-45228000D02*
X80193000Y-45228000D01*
X80193000Y-45228000D02*
X81976000Y-43445000D01*
X81976000Y-43445000D02*
X81976000Y-42545000D01*
X76904317Y-35306000D02*
X77470002Y-35306000D01*
X62738000Y-30734000D02*
X67310000Y-35306000D01*
X46874000Y-30734000D02*
X62738000Y-30734000D01*
X67310000Y-35306000D02*
X76904317Y-35306000D01*
X45270000Y-32338000D02*
X46874000Y-30734000D01*
X45270000Y-33588000D02*
X45270000Y-32338000D01*
X79305685Y-42544998D02*
X78740000Y-42544998D01*
X78739998Y-42545000D02*
X78740000Y-42544998D01*
X77200000Y-42545000D02*
X78739998Y-42545000D01*
X79305687Y-42545000D02*
X80076000Y-42545000D01*
X79305685Y-42544998D02*
X79305687Y-42545000D01*
X83406000Y-48072000D02*
X83566000Y-48232000D01*
X81280000Y-48072000D02*
X83406000Y-48072000D01*
X81280000Y-48072000D02*
X81280000Y-46228000D01*
X107270000Y-33528000D02*
X107270000Y-40468000D01*
X84666000Y-48232000D02*
X83566000Y-48232000D01*
X107270000Y-40468000D02*
X108331000Y-41529000D01*
X108331000Y-41529000D02*
X108331000Y-43561000D01*
X108331000Y-43561000D02*
X107188000Y-44704000D01*
X107188000Y-44704000D02*
X88194000Y-44704000D01*
X88194000Y-44704000D02*
X84666000Y-48232000D01*
M02*
