M48
; DRILL file {KiCad 5.1.5+dfsg1-2build2} date Sun 24 Apr 2022 09:51:16 PM ACST
; FORMAT={-:-/ absolute / metric / decimal}
; #@! TF.CreationDate,2022-04-24T21:51:16+09:30
; #@! TF.GenerationSoftware,Kicad,Pcbnew,5.1.5+dfsg1-2build2
FMAT,2
METRIC
T1C0.400
T2C0.800
T3C1.097
T4C1.100
T5C1.200
T6C1.350
T7C1.400
T8C1.100
T9C3.200
%
G90
G05
T1
X73.0Y-38.3
X73.5Y-40.5
X75.0Y-62.2
X76.2Y-49.875
X76.2Y-51.6
X77.0Y-62.7
X81.7Y-55.0
T2
X29.8Y-36.6
X29.8Y-40.1
X91.0Y-38.0
X91.0Y-43.0
X41.0Y-38.0
X41.0Y-43.0
X110.984Y-70.38
X110.984Y-78.0
X113.524Y-70.38
X113.524Y-78.0
X79.8Y-36.7
X79.8Y-40.2
X79.0Y-28.5
X79.0Y-31.0
X29.0Y-28.5
X29.0Y-31.0
T3
X28.8Y-45.0
X28.8Y-47.54
X79.0Y-45.0
X79.0Y-47.54
X110.984Y-84.0
X113.524Y-84.0
T4
X37.11Y-33.58
X38.38Y-28.5
X39.65Y-33.58
X40.92Y-28.5
X42.19Y-33.58
X43.46Y-28.5
X44.73Y-33.58
X46.0Y-28.5
X47.27Y-33.58
X48.54Y-28.5
X49.81Y-33.58
X51.08Y-28.5
X52.35Y-33.58
X53.62Y-28.5
X54.89Y-33.58
X87.11Y-33.58
X88.38Y-28.5
X89.65Y-33.58
X90.92Y-28.5
X92.19Y-33.58
X93.46Y-28.5
X94.73Y-33.58
X96.0Y-28.5
X97.27Y-33.58
X98.54Y-28.5
X99.81Y-33.58
X101.08Y-28.5
X102.35Y-33.58
X103.62Y-28.5
X104.89Y-33.58
T5
X54.0Y-58.0
X61.5Y-58.0
X30.5Y-58.0
X38.0Y-58.0
X88.5Y-58.0
X96.0Y-58.0
X61.0Y-41.0
X61.0Y-46.08
X111.0Y-41.0
X111.0Y-46.08
X112.0Y-58.0
X119.5Y-58.0
T6
X48.0Y-71.0
X54.0Y-71.0
X64.0Y-71.0
X70.0Y-71.0
X80.0Y-71.0
X86.0Y-71.0
X96.0Y-71.0
X102.0Y-71.0
T7
X39.0Y-80.73
X39.0Y-85.81
X83.0Y-80.73
X83.0Y-85.81
X61.0Y-28.46
X61.0Y-33.54
X120.0Y-28.46
X120.0Y-33.54
X67.0Y-80.73
X67.0Y-85.81
X102.0Y-80.73
X102.0Y-85.81
X70.0Y-28.46
X70.0Y-33.54
X111.0Y-28.46
X111.0Y-33.54
X48.0Y-80.73
X48.0Y-85.81
T8
X26.26Y-45.0
X26.26Y-47.54
X76.46Y-45.0
X76.46Y-47.54
X110.984Y-86.54
X113.524Y-86.54
T9
X120.0Y-85.0
X97.0Y-41.0
X30.0Y-85.0
X47.0Y-41.0
T0
M30
