G04 #@! TF.GenerationSoftware,KiCad,Pcbnew,5.1.5+dfsg1-2build2*
G04 #@! TF.CreationDate,2022-04-24T21:51:12+09:30*
G04 #@! TF.ProjectId,tda7293,74646137-3239-4332-9e6b-696361645f70,B*
G04 #@! TF.SameCoordinates,Original*
G04 #@! TF.FileFunction,Copper,L1,Top*
G04 #@! TF.FilePolarity,Positive*
%FSLAX46Y46*%
G04 Gerber Fmt 4.6, Leading zero omitted, Abs format (unit mm)*
G04 Created by KiCad (PCBNEW 5.1.5+dfsg1-2build2) date 2022-04-24 21:51:12*
%MOMM*%
%LPD*%
G04 APERTURE LIST*
%ADD10R,0.700000X1.300000*%
%ADD11C,3.000000*%
%ADD12R,1.300000X0.700000*%
%ADD13C,1.600000*%
%ADD14C,1.800000*%
%ADD15R,1.998980X1.998980*%
%ADD16O,1.998980X1.998980*%
%ADD17R,1.600000X1.600000*%
%ADD18R,1.250000X1.000000*%
%ADD19C,2.400000*%
%ADD20R,2.400000X2.400000*%
%ADD21R,1.000000X1.250000*%
%ADD22R,1.700000X1.300000*%
%ADD23R,1.200000X1.200000*%
%ADD24C,2.350000*%
%ADD25C,1.000000*%
%ADD26R,0.900000X0.800000*%
%ADD27O,2.400000X2.400000*%
%ADD28O,1.600000X1.600000*%
%ADD29C,0.800000*%
%ADD30C,0.250000*%
%ADD31C,1.000000*%
%ADD32C,3.000000*%
%ADD33C,4.000000*%
%ADD34C,2.500000*%
G04 APERTURE END LIST*
D10*
X69950000Y-65400000D03*
X68050000Y-65400000D03*
X107450000Y-63000000D03*
X105550000Y-63000000D03*
X102450000Y-63000000D03*
X100550000Y-63000000D03*
D11*
X102000000Y-80730000D03*
X102000000Y-85810000D03*
D12*
X117800000Y-69626000D03*
X117800000Y-67726000D03*
D13*
X41000000Y-38000000D03*
X41000000Y-43000000D03*
D14*
X37110000Y-33580000D03*
X38380000Y-28500000D03*
X39650000Y-33580000D03*
X40920000Y-28500000D03*
X42190000Y-33580000D03*
X43460000Y-28500000D03*
X44730000Y-33580000D03*
X46000000Y-28500000D03*
X47270000Y-33580000D03*
X48540000Y-28500000D03*
X49810000Y-33580000D03*
X51080000Y-28500000D03*
X52350000Y-33580000D03*
X53620000Y-28500000D03*
X54890000Y-33580000D03*
D12*
X87000000Y-38350000D03*
X87000000Y-36450000D03*
X37000000Y-38350000D03*
X37000000Y-36450000D03*
D15*
X79000000Y-45000000D03*
D16*
X79000000Y-47540000D03*
D11*
X39000000Y-85810000D03*
X39000000Y-80730000D03*
D15*
X28800000Y-45000000D03*
D16*
X28800000Y-47540000D03*
D17*
X79000000Y-31000000D03*
D13*
X79000000Y-28500000D03*
D17*
X29000000Y-31000000D03*
D13*
X29000000Y-28500000D03*
D17*
X29800000Y-36600000D03*
D13*
X29800000Y-40100000D03*
D18*
X57000000Y-44000000D03*
X57000000Y-46000000D03*
D13*
X79800000Y-40200000D03*
D17*
X79800000Y-36700000D03*
D13*
X91000000Y-43000000D03*
X91000000Y-38000000D03*
D18*
X107000000Y-44000000D03*
X107000000Y-46000000D03*
X80400000Y-55000000D03*
X80400000Y-53000000D03*
D19*
X30500000Y-58000000D03*
D20*
X38000000Y-58000000D03*
D18*
X52400000Y-38000000D03*
X52400000Y-36000000D03*
D20*
X96000000Y-58000000D03*
D19*
X88500000Y-58000000D03*
D18*
X102400000Y-38200000D03*
X102400000Y-36200000D03*
D21*
X68000000Y-63000000D03*
X70000000Y-63000000D03*
X70000000Y-57000000D03*
X68000000Y-57000000D03*
D20*
X61500000Y-58000000D03*
D19*
X54000000Y-58000000D03*
D18*
X55000000Y-36000000D03*
X55000000Y-38000000D03*
D19*
X112000000Y-58000000D03*
D20*
X119500000Y-58000000D03*
D18*
X105000000Y-38200000D03*
X105000000Y-36200000D03*
X82900000Y-53000000D03*
X82900000Y-55000000D03*
D22*
X117800000Y-75426000D03*
X117800000Y-71926000D03*
D23*
X117800000Y-77876000D03*
X117800000Y-80076000D03*
D22*
X72000000Y-46750000D03*
X72000000Y-43250000D03*
D24*
X54000000Y-71000000D03*
X48000000Y-71000000D03*
X64000000Y-71000000D03*
X70000000Y-71000000D03*
X80000000Y-71000000D03*
X86000000Y-71000000D03*
X102000000Y-71000000D03*
X96000000Y-71000000D03*
D25*
X27000000Y-27000000D03*
X123000000Y-27000000D03*
X27000000Y-81000000D03*
X123000000Y-81000000D03*
D11*
X61000000Y-33540000D03*
X61000000Y-28460000D03*
D16*
X113524000Y-84000000D03*
D15*
X110984000Y-84000000D03*
D11*
X70000000Y-28460000D03*
X70000000Y-33540000D03*
X111000000Y-28460000D03*
X111000000Y-33540000D03*
X120000000Y-28460000D03*
X120000000Y-33540000D03*
X67000000Y-85810000D03*
X67000000Y-80730000D03*
X48000000Y-80730000D03*
X48000000Y-85810000D03*
X83000000Y-85810000D03*
X83000000Y-80730000D03*
D26*
X70000000Y-54000000D03*
X68000000Y-54950000D03*
X68000000Y-53050000D03*
X78000000Y-54950000D03*
X78000000Y-53050000D03*
X76000000Y-54000000D03*
D12*
X34200000Y-27400000D03*
X34200000Y-29300000D03*
X34200000Y-32900000D03*
X34200000Y-31000000D03*
X37000000Y-45150000D03*
X37000000Y-43250000D03*
D19*
X61000000Y-41000000D03*
D27*
X61000000Y-46080000D03*
D12*
X84200000Y-29200000D03*
X84200000Y-27300000D03*
X84200000Y-32750000D03*
X84200000Y-30850000D03*
X73500000Y-59950000D03*
X73500000Y-58050000D03*
X87000000Y-43250000D03*
X87000000Y-45150000D03*
D27*
X111000000Y-46080000D03*
D19*
X111000000Y-41000000D03*
D12*
X72000000Y-54450000D03*
X72000000Y-52550000D03*
X74000000Y-52550000D03*
X74000000Y-54450000D03*
X76000000Y-58050000D03*
X76000000Y-59950000D03*
X37000000Y-39850000D03*
X37000000Y-41750000D03*
D10*
X42550000Y-63000000D03*
X44450000Y-63000000D03*
X49450000Y-63000000D03*
X47550000Y-63000000D03*
D12*
X72000000Y-49050000D03*
X72000000Y-50950000D03*
X87000000Y-39850000D03*
X87000000Y-41750000D03*
D14*
X104890000Y-33580000D03*
X103620000Y-28500000D03*
X102350000Y-33580000D03*
X101080000Y-28500000D03*
X99810000Y-33580000D03*
X98540000Y-28500000D03*
X97270000Y-33580000D03*
X96000000Y-28500000D03*
X94730000Y-33580000D03*
X93460000Y-28500000D03*
X92190000Y-33580000D03*
X90920000Y-28500000D03*
X89650000Y-33580000D03*
X88380000Y-28500000D03*
X87110000Y-33580000D03*
D28*
X110984000Y-70380000D03*
X113524000Y-78000000D03*
X113524000Y-70380000D03*
D17*
X110984000Y-78000000D03*
D26*
X68000000Y-60000000D03*
X70000000Y-59050000D03*
X70000000Y-60950000D03*
D29*
X73500000Y-40500000D03*
X76200000Y-49875000D03*
X76200000Y-51600000D03*
X73000000Y-38300046D03*
X81700000Y-55000000D03*
X75000000Y-62200000D03*
X77000000Y-62700000D03*
D30*
X37000000Y-41750000D02*
X37000000Y-43250000D01*
X31450000Y-41750000D02*
X37000000Y-41750000D01*
X29800000Y-40100000D02*
X31450000Y-41750000D01*
X30049490Y-45000000D02*
X28800000Y-45000000D01*
X31450000Y-43599490D02*
X30049490Y-45000000D01*
X31450000Y-41750000D02*
X31450000Y-43599490D01*
X30850000Y-36600000D02*
X29800000Y-36600000D01*
X31100000Y-36600000D02*
X30850000Y-36600000D01*
X34200000Y-33500000D02*
X31100000Y-36600000D01*
X34200000Y-32900000D02*
X34200000Y-33500000D01*
D31*
X58920000Y-44000000D02*
X61000000Y-46080000D01*
X57000000Y-44000000D02*
X58920000Y-44000000D01*
D30*
X80850000Y-36700000D02*
X79800000Y-36700000D01*
X84200000Y-33350000D02*
X80850000Y-36700000D01*
X84200000Y-32750000D02*
X84200000Y-33350000D01*
X87000000Y-43250000D02*
X87000000Y-41750000D01*
X81350000Y-41750000D02*
X79800000Y-40200000D01*
X87000000Y-41750000D02*
X81350000Y-41750000D01*
X81350000Y-43899490D02*
X81350000Y-41750000D01*
X80249490Y-45000000D02*
X81350000Y-43899490D01*
X79000000Y-45000000D02*
X80249490Y-45000000D01*
X89650000Y-34750000D02*
X89650000Y-33580000D01*
X88600000Y-35800000D02*
X89650000Y-34750000D01*
X87900000Y-45150000D02*
X88600000Y-44450000D01*
X87000000Y-45150000D02*
X87900000Y-45150000D01*
X91000000Y-38000000D02*
X89868630Y-38000000D01*
X89868630Y-38000000D02*
X88600000Y-38000000D01*
X88600000Y-38000000D02*
X88600000Y-35800000D01*
X88600000Y-44450000D02*
X88600000Y-38000000D01*
D31*
X108920000Y-44000000D02*
X111000000Y-46080000D01*
X107000000Y-44000000D02*
X108920000Y-44000000D01*
D30*
X73500000Y-46350000D02*
X73500000Y-40665685D01*
X73100000Y-46750000D02*
X73500000Y-46350000D01*
X72000000Y-46750000D02*
X73100000Y-46750000D01*
X73500000Y-41065685D02*
X73500000Y-40500000D01*
X72000000Y-47150000D02*
X72000000Y-49050000D01*
X73350000Y-49050000D02*
X72000000Y-49050000D01*
X75000000Y-50700000D02*
X73350000Y-49050000D01*
X80600000Y-50700000D02*
X75000000Y-50700000D01*
X82900000Y-53000000D02*
X80600000Y-50700000D01*
X98540000Y-35260000D02*
X98540000Y-28500000D01*
X97300000Y-36500000D02*
X98540000Y-35260000D01*
X95400000Y-36500000D02*
X97300000Y-36500000D01*
X93400000Y-45400000D02*
X93400000Y-38500000D01*
X85800000Y-53000000D02*
X93400000Y-45400000D01*
X93400000Y-38500000D02*
X95400000Y-36500000D01*
X82900000Y-53000000D02*
X85800000Y-53000000D01*
D31*
X52350000Y-33580000D02*
X52350000Y-35650000D01*
D30*
X102400000Y-33630000D02*
X102350000Y-33580000D01*
D31*
X102400000Y-36200000D02*
X102400000Y-33630000D01*
D32*
X70000000Y-71000000D02*
X75000000Y-66000000D01*
X75000000Y-66000000D02*
X88000000Y-66000000D01*
X88000000Y-66000000D02*
X96000000Y-58000000D01*
D30*
X38000000Y-58450000D02*
X38000000Y-58000000D01*
X42550000Y-63000000D02*
X38000000Y-58450000D01*
X99550000Y-63000000D02*
X100550000Y-63000000D01*
X96000000Y-59450000D02*
X99550000Y-63000000D01*
X96000000Y-58000000D02*
X96000000Y-59450000D01*
X69950000Y-70950000D02*
X70000000Y-71000000D01*
D31*
X69950000Y-65400000D02*
X69950000Y-70950000D01*
X69300000Y-59050000D02*
X70000000Y-59050000D01*
D30*
X69175000Y-59050000D02*
X69300000Y-59050000D01*
D31*
X68000000Y-57750000D02*
X69300000Y-59050000D01*
X68000000Y-57000000D02*
X68000000Y-57750000D01*
X68000000Y-54950000D02*
X68000000Y-57000000D01*
D30*
X68000000Y-56100020D02*
X68000000Y-57000000D01*
X68200020Y-55900000D02*
X68000000Y-56100020D01*
X71950000Y-55900000D02*
X68200020Y-55900000D01*
X73500000Y-57450000D02*
X71950000Y-55900000D01*
X73500000Y-58050000D02*
X73500000Y-57450000D01*
D31*
X55000000Y-36000000D02*
X55000000Y-33690000D01*
X54890000Y-31890000D02*
X54890000Y-33580000D01*
X54000000Y-31000000D02*
X54890000Y-31890000D01*
X47200000Y-31000000D02*
X54000000Y-31000000D01*
X46000000Y-29800000D02*
X47200000Y-31000000D01*
X46000000Y-28500000D02*
X46000000Y-29800000D01*
D32*
X74800000Y-76200000D02*
X80000000Y-71000000D01*
X62000000Y-76200000D02*
X74800000Y-76200000D01*
X59000000Y-73200000D02*
X62000000Y-76200000D01*
X54000000Y-59697056D02*
X59000000Y-64697056D01*
X59000000Y-64697056D02*
X59000000Y-73200000D01*
X54000000Y-58000000D02*
X54000000Y-59697056D01*
D31*
X105000000Y-33690000D02*
X104890000Y-33580000D01*
X105000000Y-36200000D02*
X105000000Y-33690000D01*
D30*
X54000000Y-58450000D02*
X49450000Y-63000000D01*
X54000000Y-58000000D02*
X54000000Y-58450000D01*
X112000000Y-59000000D02*
X112000000Y-58000000D01*
X108000000Y-63000000D02*
X112000000Y-59000000D01*
X107450000Y-63000000D02*
X108000000Y-63000000D01*
X110984000Y-78000000D02*
X110984000Y-84000000D01*
X78000000Y-56050000D02*
X76000000Y-58050000D01*
X78000000Y-54950000D02*
X78000000Y-56050000D01*
X68700000Y-53050000D02*
X68000000Y-53050000D01*
X69000000Y-53350000D02*
X68700000Y-53050000D01*
X69000000Y-55000000D02*
X69000000Y-53350000D01*
X69400000Y-55400000D02*
X69000000Y-55000000D01*
X73350000Y-55400000D02*
X69400000Y-55400000D01*
X76000000Y-58050000D02*
X73350000Y-55400000D01*
X75550000Y-54450000D02*
X76000000Y-54000000D01*
X74000000Y-54450000D02*
X75550000Y-54450000D01*
X37580000Y-29300000D02*
X38380000Y-28500000D01*
X34200000Y-29300000D02*
X37580000Y-29300000D01*
X34200000Y-29300000D02*
X34200000Y-31000000D01*
X117800000Y-77876000D02*
X117800000Y-75426000D01*
X113710000Y-84000000D02*
X113524000Y-84000000D01*
X113876000Y-84000000D02*
X113524000Y-84000000D01*
X117800000Y-80076000D02*
X113876000Y-84000000D01*
X70000000Y-53350000D02*
X70000000Y-54000000D01*
X70000000Y-52050000D02*
X70000000Y-53350000D01*
X71100000Y-50950000D02*
X70000000Y-52050000D01*
X72000000Y-50950000D02*
X71100000Y-50950000D01*
X71550000Y-54000000D02*
X72000000Y-54450000D01*
X70000000Y-54000000D02*
X71550000Y-54000000D01*
X72000000Y-52550000D02*
X74000000Y-52550000D01*
X76125000Y-49875000D02*
X76000000Y-50000000D01*
X76200000Y-49875000D02*
X76125000Y-49875000D01*
X76200000Y-50000000D02*
X76000000Y-50000000D01*
X75300000Y-49100000D02*
X75300000Y-40600046D01*
X73399999Y-38700045D02*
X73000000Y-38300046D01*
X72600001Y-38700045D02*
X73000000Y-38300046D01*
X76200000Y-50000000D02*
X75300000Y-49100000D01*
X72000000Y-39300046D02*
X72600001Y-38700045D01*
X75300000Y-40600046D02*
X73399999Y-38700045D01*
X72000000Y-43650000D02*
X72000000Y-39300046D01*
X79350000Y-51600000D02*
X74350000Y-51600000D01*
X74350000Y-51600000D02*
X74000000Y-51950000D01*
X80400000Y-52650000D02*
X79350000Y-51600000D01*
X74000000Y-51950000D02*
X74000000Y-52550000D01*
X80400000Y-53000000D02*
X80400000Y-52650000D01*
X87800000Y-50000000D02*
X76200000Y-50000000D01*
X92600000Y-45200000D02*
X87800000Y-50000000D01*
X92600000Y-38250000D02*
X92600000Y-45200000D01*
X97270000Y-33580000D02*
X92600000Y-38250000D01*
X39650000Y-34852792D02*
X39650000Y-33580000D01*
X38600000Y-35902792D02*
X39650000Y-34852792D01*
X37900000Y-45150000D02*
X38600000Y-44450000D01*
X37000000Y-45150000D02*
X37900000Y-45150000D01*
X41000000Y-38000000D02*
X38600000Y-38000000D01*
X38600000Y-38000000D02*
X38600000Y-35902792D01*
X38600000Y-44450000D02*
X38600000Y-38000000D01*
X37000000Y-33690000D02*
X37110000Y-33580000D01*
X37000000Y-36450000D02*
X37000000Y-33690000D01*
X87000000Y-33690000D02*
X87110000Y-33580000D01*
X87000000Y-36450000D02*
X87000000Y-33690000D01*
D31*
X70000000Y-63000000D02*
X70000000Y-60950000D01*
X82900000Y-55000000D02*
X80400000Y-55000000D01*
X70700000Y-60950000D02*
X70000000Y-60950000D01*
X71400000Y-60250000D02*
X70700000Y-60950000D01*
X71400000Y-57800000D02*
X71400000Y-60250000D01*
X70600000Y-57000000D02*
X71400000Y-57800000D01*
X70000000Y-57000000D02*
X70600000Y-57000000D01*
D30*
X80000000Y-55000000D02*
X81300000Y-55000000D01*
X80000000Y-54800000D02*
X80000000Y-55000000D01*
D31*
X79900000Y-54800000D02*
X80000000Y-54800000D01*
X78150000Y-53050000D02*
X79900000Y-54800000D01*
X78000000Y-53050000D02*
X78150000Y-53050000D01*
X74200000Y-63000000D02*
X75000000Y-62200000D01*
X70000000Y-63000000D02*
X74200000Y-63000000D01*
D30*
X41000000Y-44500000D02*
X41000000Y-43000000D01*
X37960000Y-47540000D02*
X41000000Y-44500000D01*
X28800000Y-47540000D02*
X37960000Y-47540000D01*
D32*
X57500000Y-54000000D02*
X61500000Y-58000000D01*
X30500000Y-58000000D02*
X34500000Y-54000000D01*
X46000000Y-54000000D02*
X57500000Y-54000000D01*
X34500000Y-54000000D02*
X46000000Y-54000000D01*
D31*
X55000000Y-39000000D02*
X53800000Y-40200000D01*
X55000000Y-38000000D02*
X55000000Y-39000000D01*
D30*
X53800000Y-40150000D02*
X53800000Y-40200000D01*
D31*
X52400000Y-38750000D02*
X53800000Y-40150000D01*
X52400000Y-38000000D02*
X52400000Y-38750000D01*
D33*
X48000000Y-80730000D02*
X48000000Y-85810000D01*
D31*
X57000000Y-46000000D02*
X57000000Y-50000000D01*
D33*
X46000000Y-50200000D02*
X46000000Y-54000000D01*
X70000000Y-33540000D02*
X70000000Y-28460000D01*
X46000000Y-64500000D02*
X46000000Y-54000000D01*
X43000000Y-74000000D02*
X43000000Y-67500000D01*
X48000000Y-79000000D02*
X43000000Y-74000000D01*
X43000000Y-67500000D02*
X46000000Y-64500000D01*
X48000000Y-79460000D02*
X48000000Y-79000000D01*
X67000000Y-46900000D02*
X67000000Y-36540000D01*
X63900000Y-50000000D02*
X67000000Y-46900000D01*
X46200000Y-50000000D02*
X63900000Y-50000000D01*
X67000000Y-36540000D02*
X70000000Y-33540000D01*
X46000000Y-50200000D02*
X46200000Y-50000000D01*
D32*
X53700000Y-40200000D02*
X53700000Y-42200000D01*
X53700000Y-42200000D02*
X45900000Y-50000000D01*
X46000000Y-50000000D02*
X46000000Y-52200000D01*
X46000000Y-52200000D02*
X46000000Y-50200000D01*
D30*
X91000000Y-44500000D02*
X91000000Y-43000000D01*
X87960000Y-47540000D02*
X91000000Y-44500000D01*
X79000000Y-47540000D02*
X87960000Y-47540000D01*
D32*
X88500000Y-58000000D02*
X92500000Y-54000000D01*
X115500000Y-54000000D02*
X119500000Y-58000000D01*
X92500000Y-54000000D02*
X104000000Y-54000000D01*
X104000000Y-54000000D02*
X115500000Y-54000000D01*
D33*
X102000000Y-80730000D02*
X102000000Y-85810000D01*
X120000000Y-30581320D02*
X120000000Y-33540000D01*
X120000000Y-28460000D02*
X120000000Y-30581320D01*
X104000000Y-49200000D02*
X104000000Y-54000000D01*
D30*
X104000000Y-40600000D02*
X104000000Y-41000000D01*
X104000000Y-40550000D02*
X104000000Y-40600000D01*
D31*
X105000000Y-40000000D02*
X104000000Y-41000000D01*
X105000000Y-38200000D02*
X105000000Y-40000000D01*
X103800000Y-40750000D02*
X104000000Y-40550000D01*
X103800000Y-41200000D02*
X103800000Y-40750000D01*
X102400000Y-39800000D02*
X103800000Y-41200000D01*
X102400000Y-38200000D02*
X102400000Y-39800000D01*
D32*
X104000000Y-49200000D02*
X103800000Y-49000000D01*
X103700000Y-49000000D02*
X103700000Y-40750000D01*
X104800000Y-50000000D02*
X104000000Y-49200000D01*
D31*
X107000000Y-46000000D02*
X107000000Y-49200000D01*
D33*
X102000000Y-79000000D02*
X102000000Y-79460000D01*
X107000000Y-74000000D02*
X102000000Y-79000000D01*
X107000000Y-68000000D02*
X107000000Y-74000000D01*
X104000000Y-65000000D02*
X107000000Y-68000000D01*
X104000000Y-54000000D02*
X104000000Y-65000000D01*
X120000000Y-44000000D02*
X120000000Y-33540000D01*
X114000000Y-50000000D02*
X120000000Y-44000000D01*
X104800000Y-50000000D02*
X114000000Y-50000000D01*
D30*
X117800000Y-71926000D02*
X117800000Y-69626000D01*
X52720001Y-27600001D02*
X53620000Y-28500000D01*
X51320000Y-26200000D02*
X52720001Y-27600001D01*
X35400000Y-26200000D02*
X51320000Y-26200000D01*
X34200000Y-27400000D02*
X35400000Y-26200000D01*
D33*
X61000000Y-33540000D02*
X61000000Y-28460000D01*
D31*
X61000000Y-41200000D02*
X61000000Y-34540000D01*
D30*
X58838680Y-28500000D02*
X58878680Y-28460000D01*
D34*
X53620000Y-28500000D02*
X58838680Y-28500000D01*
D33*
X56260000Y-28460000D02*
X56300000Y-28500000D01*
X61000000Y-28460000D02*
X56260000Y-28460000D01*
D30*
X84200000Y-27150000D02*
X84200000Y-27300000D01*
X84950000Y-26400000D02*
X84200000Y-27150000D01*
X101520000Y-26400000D02*
X84950000Y-26400000D01*
X103620000Y-28500000D02*
X101520000Y-26400000D01*
D33*
X111000000Y-28460000D02*
X111000000Y-33540000D01*
D34*
X107000000Y-28460000D02*
X103660000Y-28460000D01*
D31*
X111000000Y-41000000D02*
X111000000Y-33540000D01*
D33*
X111000000Y-28460000D02*
X105240000Y-28460000D01*
D30*
X76000000Y-59950000D02*
X73500000Y-59950000D01*
X76600001Y-62300001D02*
X77000000Y-62700000D01*
X76000000Y-61700000D02*
X76600001Y-62300001D01*
X76000000Y-59950000D02*
X76000000Y-61700000D01*
X75500000Y-59950000D02*
X76000000Y-59950000D01*
X40920000Y-29880000D02*
X40920000Y-28500000D01*
X39600000Y-31200000D02*
X40920000Y-29880000D01*
X37000000Y-31200000D02*
X39600000Y-31200000D01*
X35400000Y-32800000D02*
X37000000Y-31200000D01*
X35400000Y-37650000D02*
X35400000Y-32800000D01*
X36100000Y-38350000D02*
X35400000Y-37650000D01*
X37000000Y-38350000D02*
X36100000Y-38350000D01*
X37000000Y-38350000D02*
X37000000Y-39850000D01*
X116900000Y-67726000D02*
X116000000Y-68626000D01*
X117800000Y-67726000D02*
X116900000Y-67726000D01*
X116316000Y-68310000D02*
X116000000Y-68626000D01*
X116000000Y-75524000D02*
X113524000Y-78000000D01*
X116000000Y-68626000D02*
X116000000Y-75524000D01*
X84200000Y-29200000D02*
X84200000Y-30850000D01*
X87680000Y-29200000D02*
X88380000Y-28500000D01*
X84200000Y-29200000D02*
X87680000Y-29200000D01*
X87000000Y-39850000D02*
X87000000Y-38350000D01*
X89400000Y-31400000D02*
X90920000Y-29880000D01*
X86800000Y-31400000D02*
X89400000Y-31400000D01*
X85400000Y-32800000D02*
X86800000Y-31400000D01*
X85400000Y-37650000D02*
X85400000Y-32800000D01*
X86100000Y-38350000D02*
X85400000Y-37650000D01*
X90920000Y-29880000D02*
X90920000Y-28500000D01*
X87000000Y-38350000D02*
X86100000Y-38350000D01*
D31*
X68000000Y-62125000D02*
X68000000Y-60000000D01*
X68000000Y-63000000D02*
X68000000Y-62125000D01*
X68000000Y-65350000D02*
X68050000Y-65400000D01*
X68000000Y-63000000D02*
X68000000Y-65350000D01*
M02*
